<?xml version="1.0" encoding="utf-8"?>
<!-- Generator: Adobe Illustrator 16.0.4, SVG Export Plug-In . SVG Version: 6.00 Build 0)  -->
<!DOCTYPE svg PUBLIC "-//W3C//DTD SVG 1.1//EN" "http://www.w3.org/Graphics/SVG/1.1/DTD/svg11.dtd">
<svg version="1.1" id="Layer_1" xmlns="http://www.w3.org/2000/svg" xmlns:xlink="http://www.w3.org/1999/xlink" x="0px" y="0px"
	 width="107.562px" height="28.109px" viewBox="0 0 107.562 28.109" enable-background="new 0 0 107.562 28.109"
	 xml:space="preserve">
<g>
	<g>
		<g>
			<path fill-rule="evenodd" clip-rule="evenodd" fill="#8A181A" d="M20.226,14.739l-0.012-0.158c0,0.027-0.004,0.051-0.012,0.078
				C20.203,14.694,20.214,14.715,20.226,14.739"/>
			<polygon fill-rule="evenodd" clip-rule="evenodd" fill="#8A181A" points="20.21,14.436 20.21,14.409 20.207,14.381 			"/>
			<path fill-rule="evenodd" clip-rule="evenodd" fill="#8A181A" d="M20.181,14.374c-0.004,0.02-0.014,0.041-0.016,0.053
				L20.181,14.374z"/>
			<path fill-rule="evenodd" clip-rule="evenodd" fill="#8A181A" d="M20.433,15.895c-0.02-0.021-0.043-0.07-0.043-0.07
				c-0.006-0.135-0.045-0.252-0.094-0.371l-0.008,0.062c0.02,0.072,0.037,0.076,0.029,0.006c0.008,0.162,0.047,0.303,0.096,0.439
				C20.423,15.944,20.437,15.942,20.433,15.895"/>
			<polygon fill-rule="evenodd" clip-rule="evenodd" fill="#8A181A" points="20.443,16.043 20.414,15.961 20.412,15.969 
				20.441,16.047 			"/>
			<path fill-rule="evenodd" clip-rule="evenodd" fill="#8A181A" d="M22.759,12.944c-0.033,0.033-0.105,0.105-0.105,0.105
				c-0.238,0.016-0.416,0.152-0.617,0.271l0.121,0.02c0.113-0.062,0.113-0.098-0.004-0.08c0.273-0.029,0.506-0.146,0.723-0.277
				C22.849,12.958,22.832,12.924,22.759,12.944 M23.919,1.602c0.814,0.705,1.799,2,2.158,2.98c0.223,0.225,0.342,0.002,0.105-1.041
				c-0.217-0.949-0.719-2-1.045-2.602C24.148-0.304,21.646-0.529,23.919,1.602 M24.929,9.174c0.002,0.055,0.002,0.156,0.002,0.156
				c-0.309,0.027-0.377,0.217-0.457,0.416l0.191,0.025c0.072-0.098,0.006-0.154-0.117-0.117c0.318-0.062,0.498-0.223,0.619-0.418
				C25.091,9.204,25.009,9.153,24.929,9.174 M26.296,7.903c-0.035,0.363-0.066,0.727-0.162,1.088
				c-0.203,0.402-0.342,0.709-0.66,1.107c-0.01,0.021-0.027,0.033-0.037,0.039c-0.098,0.229-0.23,0.43-0.43,0.592
				c0.084-0.076,0.107-0.047,0.045,0.068l-0.105,0.051c0.086-0.215,0.184-0.406,0.355-0.559c0,0,0.021-0.102,0.025-0.148
				c0.006-0.01,0.012-0.016,0.021-0.02c-0.055-0.117-0.01-0.486,0.029-0.633c0-0.1,0.391-0.031,0.387-0.145
				c0.129-0.164,0.117-0.383,0.15-0.605c-0.012-0.109,0.268,0.041,0.26-0.02c0.09-0.291-0.18-0.631-0.027-0.762
				c0.105-0.109,0.203-0.205,0.293-0.307C26.39,7.729,26.328,7.809,26.296,7.903 M25.218,8.155
				c-0.053,0.016-0.098,0.033-0.141,0.062c-0.02,0.061-0.045,0.125-0.104,0.176c0.012-0.086,0.047-0.135,0.104-0.176
				c0.014-0.037,0.02-0.082,0.023-0.123l-0.01-0.037l0.023-0.037l-0.014,0.074v0.004C25.115,8.147,25.162,8.161,25.218,8.155
				l0.109-0.016c0.012,0,0.025,0,0.025,0h-0.025C25.294,8.147,25.257,8.155,25.218,8.155 M25.345,7.651
				c0.041,0.055,0.1,0.104,0.041,0.133c-0.062,0.018-0.115,0.033-0.152,0.062C25.275,7.782,25.308,7.715,25.345,7.651
				 M24.441,11.917c-0.246,0.307-0.492,0.605-0.785,0.875c-0.381,0.305-0.676,0.5-1.148,0.766c-0.318,0.166,0.154-0.254,0.342-0.402
				c0.07-0.072,0.275-0.031,0.35-0.107c0.189-0.109,0.322-0.285,0.492-0.445c0.066-0.08,0.131,0.027,0.162-0.01
				c0.238-0.232,0.311-0.516,0.475-0.633c0.125-0.09,0.232-0.18,0.342-0.268L24.441,11.917z M22.72,21.774
				c0.016-0.082,0.031-0.166,0.031-0.166c0.045,0.006,0.068,0.029,0.068,0.072C22.82,21.68,22.771,21.727,22.72,21.774
				 M22.544,21.581c-0.062-0.014-0.062-0.049-0.062-0.059c0,0,0.029-0.029,0.041-0.043c0.016,0,0.025,0.004,0.035,0.004
				C22.552,21.522,22.544,21.581,22.544,21.581 M23.541,12.208l0.096-0.105l0.023-0.033l0.037-0.029l-0.061,0.062v0.002
				c-0.029,0.043-0.004,0.049,0.029,0.045l0.061-0.01c0.014-0.004,0.033-0.006,0.033-0.006l-0.033,0.006
				c-0.02,0.006-0.041,0.01-0.061,0.01C23.623,12.161,23.58,12.178,23.541,12.208c-0.057,0.057-0.121,0.1-0.193,0.145
				C23.412,12.286,23.48,12.247,23.541,12.208 M24.095,11.702c-0.018,0.049-0.018,0.09-0.07,0.125
				c-0.049,0.012-0.09,0.033-0.131,0.057L24.095,11.702z M18.798,5.958c-0.076-0.068,0.219-0.244,0.133-0.322
				c-0.049-0.184-0.23-0.318-0.387-0.457c-0.098-0.049,0.168-0.166,0.113-0.186c-0.201-0.242-0.633-0.178-0.684-0.336
				c-0.055-0.123-0.123-0.223-0.186-0.332c0.062,0.074,0.113,0.146,0.195,0.199c0.318,0.15,0.629,0.361,0.883,0.652
				c0.215,0.385,0.354,0.691,0.41,1.148C19.298,6.627,18.908,6.116,18.798,5.958 M17.755,5.602c-0.051-0.037-0.072-0.08-0.072-0.117
				L17.609,5.43L17.58,5.426l-0.014-0.02l0.043,0.023l0,0c0.043,0.01,0.08-0.02,0.107-0.053l0.064-0.098
				c-0.018,0.021-0.037,0.064-0.064,0.098c-0.021,0.039-0.033,0.074-0.033,0.107C17.722,5.51,17.751,5.549,17.755,5.602 M17.5,5.284
				L17.41,5.17c0.053-0.025,0.117-0.051,0.117-0.004C17.503,5.217,17.503,5.256,17.5,5.284 M27.232,10.571
				c-0.086-1.445-0.537-2.723-1.26-3.811l-0.047,0.012c-0.014-0.049-0.027-0.094-0.035-0.141c-0.615-0.898-1.406-1.672-2.322-2.309
				c-1.672-4.178-7.943-4.158-11.721-3.371c-2.301,0.127-4.551,0.92-6.42,2.654c-2.67,1.781-4.822,4.623-5.275,9.873
				c-0.074,0.84-0.098,1.645-0.076,2.408c-0.195,2.221-0.025,4.422,0.654,6.371c0.609,1.746,1.51,2.996,2.592,3.875
				c0.156-1.186,0.619-2.734,1.271-3.357l0.711-0.701c1.969-1.938,3.666-3.611,6.188-4.201c0.969-0.195,1.896-0.303,2.816-0.326
				c-0.094-0.088-0.209-0.164-0.209-0.25c-0.076-0.041,0.266-0.129,0.197-0.168c-0.098-0.104-0.527-0.354-0.5-0.195
				c0.055,0.236,0.148,0.387,0.215,0.602c-0.15-0.189-0.264-0.381-0.279-0.615c-0.006-0.148,0.139-0.348,0.074-0.527
				c-0.166-0.242-0.471-0.488-0.486-0.781c0.012-0.338-0.027-0.652-0.078-0.961c-0.365-0.086-0.721-0.197-1.08-0.332
				c-0.469-0.141-0.904-0.211-1.279-0.402c-0.732-0.387-1.617-0.58-2.416-0.967c-0.619-0.287-1.191-0.701-1.436-1.264
				C6.154,10.848,5.453,9.78,4.849,8.792C4.55,7.602,4.462,6.801,4.435,6.733c0,0.104-0.008,0.221-0.014,0.354
				c0-0.277,0-0.387,0.014-0.354c0.031-0.973,0.059-0.865,0.49-1.432c0.031-0.062,1.244-0.309,1.436,0.652
				C6.353,6.682,7.187,7.506,7.347,8.192C7.388,8.258,7.41,8.321,7.351,8.219C7.355,8.231,7.355,8.25,7.355,8.262
				c0.031,0.049,0.086,0.086,0.184,0.086C7.691,8.354,8.273,8.596,8.06,8.61c0.021,0.031,0.221,0.137,0.309,0.305
				C8.478,9.139,8.781,9.188,8.847,9.44c0.391,1.447,2.473,1.689,4.064,2.381c0.09,0.041,0.182,0.08,0.271,0.111
				c0.002-0.012,0.004-0.025,0.016-0.035c0.258-0.66-0.619-1.354,0.273-1.947c-0.67-0.254-1.299-0.621-1.865-1.184
				c-0.904-0.967-1.223-2.043-1.094-3.166c0.008-0.424,0.01-0.834,0.166-1.197c0.297-0.691,0.641-1.617,1.459-2.234
				c0.844-0.609,1.781-0.633,2.26-0.141c0.703,0.609,1.857,0.443,1.209,0.039c0.502,0.334,0.852,0.424,1.146,0.574
				c0.273,0.154,0.539,0.43,0.357,0.965c-0.004,0.041-0.191,0.311-0.494,0.529c-0.098,0.098-0.102,0.035-0.236,0.195
				c0.172,0,0.342,0.068,0.447,0.271c-0.051-0.078-0.02-0.15,0.068-0.141l0.014,0.154c-0.166,0.018-0.307,0.072-0.414-0.156
				c0,0-0.074,0.057-0.107,0.082c-0.037-0.035-0.031-0.107-0.031-0.172c-0.061,0.078-0.146,0.203-0.273,0.393
				c-0.115,0.197-0.086,0.197-0.109,0.18c-0.014,0-0.029,0-0.07,0c-0.064-0.012-0.182-0.018-0.297-0.033
				c-0.242-0.027-0.537-0.061-0.746-0.172c-0.646-0.322-0.953-0.32-1.133-0.184C13.525,4.7,13.382,5.065,13.23,5.559
				c-0.156,0.496-0.111,1.141,0.182,1.625c0.256,0.406,0.658,0.699,1.123,0.891c0.076-0.025,0.156-0.057,0.248-0.088
				c0.076-0.023,1.408-0.346,1.949,0.107c0.01,0.055,0.021,0.125,0.035,0.199c0.066-0.016,0.135-0.035,0.193-0.064
				c0.082-0.037,0.184-0.055,0.254-0.107l0.037,0.002l-0.025-0.01l0.055-0.029c0.135,0.066,0.186-0.018,0.223-0.104l0.031-0.074
				c0.084-0.084,0.195-0.156,0.254-0.266l0.01,0.035l0.004-0.062l0.094-0.137c0.031-0.018,0.08-0.027,0.135-0.035
				c0.049-0.033-0.01-0.074-0.055-0.125c0.162-0.336,0.225-0.75,0.178-1.164c0.01,0.002,0.16-0.24,0.283-0.344l0.041,0.1l0.027-0.01
				c0.182,0.307,0.33,0.676,0.453,1.023l0.047,0.145c0,0.07-0.018,0.133-0.061,0.207l-0.232,0.311
				c-0.113,0.125,0.107,0.461,0.006,0.775c-0.002,0.055-0.236-0.109-0.242-0.006c-0.072,0.211-0.098,0.457-0.273,0.588
				c-0.037,0.113-0.361-0.039-0.389,0.068c-0.109,0.17-0.486,0.779-0.176,0.602c0.463-0.291,0.729-0.572,0.994-0.979
				c-0.166,0.42-0.518,0.801-1,1.041c-0.314,0.152-0.77,0.152-1.131,0.258c-0.018,0.008-0.039,0.014-0.055,0.023
				c-0.357,0.814-0.066,1.549-0.344,2.371c-0.025,0.076-0.053,0.156-0.076,0.234c1.748,0.096,3.301-0.289,4.873-0.869
				c0.26-0.109,0.521-0.205,0.758-0.326l0.375-0.178h0.047l-0.033-0.012l0.084-0.045c0.164,0.062,0.252-0.037,0.336-0.139
				c0.016-0.023,0.043-0.055,0.072-0.082c0.158-0.092,0.32-0.182,0.471-0.279l-0.014,0.041l0.049-0.068l0.201-0.125
				c0.051-0.014,0.105-0.014,0.176-0.004c0.07-0.012,0.041-0.078,0.035-0.139c0.438-0.32,0.857-0.674,1.227-1.105
				c0,0,0.363-0.113,0.555-0.113l-0.07,0.119l0.033,0.012c-0.146,0.375-0.322,0.795-0.473,1.17l-0.062,0.162
				c-0.057,0.066-0.131,0.105-0.205,0.148c-0.133,0.051-0.27,0.105-0.412,0.162c-0.205,0.064-0.113,0.473-0.314,0.701
				c-0.012,0.051-0.215-0.172-0.246-0.066c-0.119,0.182-0.186,0.391-0.359,0.504c-0.037,0.104-0.379-0.062-0.416,0.039
				c-0.135,0.178-0.408,0.797-0.115,0.602c0.447-0.312,0.66-0.547,1-0.85c-0.246,0.33-0.529,0.639-0.992,0.912
				c-0.293,0.166-0.77,0.262-1.123,0.471c-0.146,0.125-0.297,0.26-0.455,0.387c0.506-0.146,1.016-0.344,1.521-0.607
				c0,0,0.334-0.084,0.457-0.09l-0.129,0.09l0.012,0.002c-0.352,0.268-0.762,0.539-1.127,0.754l-0.156,0.09
				c-0.082,0.035-0.164,0.062-0.25,0.078c-0.135,0.021-0.273,0.045-0.426,0.068c-0.203,0.018-0.4,0.252-0.709,0.344
				c-0.047,0.021-0.061-0.109-0.15-0.061c-0.223,0.092-0.406,0.174-0.625,0.209c-0.1,0.049-0.27-0.074-0.367-0.035
				c-0.221,0.072-0.805,0.289-0.453,0.254c0.531-0.068,0.869-0.156,1.336-0.268c-0.41,0.137-0.85,0.248-1.367,0.297
				c-0.316,0.027-0.725-0.004-1.113,0.018c-0.143,0.021-0.281,0.041-0.424,0.057c-0.338,0.049-0.689,0.09-1.062,0.09
				c-0.1,0.004-0.199,0.008-0.299,0.012c-0.02,0.529-0.035,1.043-0.129,1.59l-0.059,0.416l-0.035,0.209l-0.027,0.021l0.027-0.012
				l-0.006,0.047c-0.15,0.051-0.107,0.111-0.062,0.18l0.029,0.053l-0.02,0.168c0.111,0.004,0.221,0.01,0.334,0.018
				c2.484,0.137,4.658,1.146,6.135,2.852c0,0.039,0,0.074,0,0.074c0,0.336,0.141,0.625,0.367,0.816h-0.164v0.199
				c0,0.102,0.037,0.441,0.527,0.469l0.07,0.002c0,0,0.014-0.068,0.02-0.117h0.258c0.051,0.088,0.188,0.305,0.188,0.305l0,0
				c0,0,0,0.002,0.006,0.004c-0.008,0.027-0.014,0.045-0.014,0.045c0,0.238,0.135,0.402,0.211,0.484
				c0.035,0.094,0.115,0.336,0.115,0.336c0.037,0.107,0.092,0.191,0.148,0.262c-0.01,0.016-0.018,0.037-0.02,0.039l-0.076,0.203
				c0,0,0.35,0.188,0.439,0.238l-0.016,0.029l-0.006,0.064l-0.002,0.014c0.99-0.818,1.916-1.773,2.729-2.871
				C29.32,17.465,28.876,13.637,27.232,10.571 M23.306,23.793c0.006-0.021,0.016-0.053,0.016-0.076l-0.008-0.078
				c-0.018-0.119-0.098-0.209-0.199-0.275l0.004-0.012c0,0-0.27-0.172-0.279-0.176c-0.072-0.049-0.137-0.086-0.186-0.133
				c0.014-0.059,0.029-0.135,0.029-0.225c0-0.184-0.08-0.322-0.225-0.404c-0.139-0.092-0.6-0.279-0.967-0.248
				c-0.139-0.246-0.312-0.541-0.596-0.736l-0.035-0.023l-0.037-0.018c-0.264-0.119-0.531-0.195-0.797-0.268
				c-0.312-0.092-0.613-0.176-0.834-0.309c-1.713-1.094-3.484-0.807-5.359-0.504l-1.229,0.184L12.58,20.5h-0.01
				c-0.242,0.066-0.439,0.162-0.633,0.256c-0.162,0.076-0.318,0.148-0.469,0.182c-0.871,0.211-1.457,0.9-1.977,1.508
				c0,0-0.01,0.014-0.014,0.016c-0.473,0.551-0.844,0.924-1.674,1.051c-0.984,0.195-1.439,1.041-1.5,1.562l-0.008,0.141
				c0,0.137,0.035,0.25,0.084,0.352c-0.232,0.332-0.35,0.633-0.432,0.855c-0.135,0.365-0.221,0.6-0.689,0.859
				c1.875,0.779,4.029,0.896,6.104,0.797c4.018,0.158,8.693-1.031,12.406-4.041c-0.135-0.115-0.311-0.18-0.441-0.23
				C23.328,23.807,23.308,23.797,23.306,23.793 M15.312,17.559h0.006c-0.002-0.01-0.008-0.014-0.01-0.023
				C15.308,17.545,15.31,17.549,15.312,17.559 M17.755,7.842c0.008-0.02,0.025-0.043,0.029-0.064c0,0-0.004,0.004-0.01,0.006
				C17.763,7.801,17.761,7.823,17.755,7.842 M15.457,16.417c-0.146,0.078-0.199,0.162-0.141,0.225
				C15.47,16.575,15.595,16.497,15.457,16.417 M21.308,11.75c-0.197-0.062-0.387-0.096-0.467,0.082
				C21.039,11.891,21.224,11.852,21.308,11.75 M17.9,7.741c-0.047-0.004-0.09-0.021-0.1-0.064h-0.002
				c-0.006,0.031-0.006,0.07-0.014,0.102C17.822,7.756,17.855,7.747,17.9,7.741 M23.082,10.766
				c-0.057-0.016-0.098-0.041-0.086-0.092v-0.002l-0.076,0.107C22.97,10.766,23.025,10.766,23.082,10.766 M22.845,10.856
				c0.027-0.023,0.051-0.049,0.074-0.076c0,0-0.014,0.004-0.021,0.008C22.876,10.809,22.863,10.834,22.845,10.856 M18.021,7.735
				L17.9,7.741C17.945,7.747,17.996,7.735,18.021,7.735 M23.082,10.766c0.051,0.012,0.111,0.018,0.143,0.027
				C23.177,10.778,23.128,10.77,23.082,10.766 M18.287,6c0.041,0.025,0.105,0.088,0.105,0.088c-0.189,0.168-0.105,0.303-0.035,0.473
				l0.15-0.068c-0.018-0.094-0.1-0.104-0.16-0.027c0.178-0.174,0.195-0.371,0.131-0.557C18.404,5.934,18.314,5.946,18.287,6"/>
		</g>
	</g>
	<g>
		<path fill="#8A181A" d="M37.71,12.657V6.301h1.055v7.445h-0.76c-0.664-0.258-1.42-0.518-2.125-0.758
			c-0.258-0.092-0.518-0.184-0.773-0.258c-0.057,0.609-0.648,1.109-1.295,1.109c-0.684,0-1.258-0.555-1.258-1.275
			c0-0.629,0.445-1.127,1.092-1.238V8.704c-0.092,0.018-0.168,0.018-0.26,0.018c-0.738,0-1.256-0.555-1.256-1.258
			c0-0.719,0.518-1.273,1.256-1.273c0.758,0,1.295,0.518,1.295,1.273v3.863c0,0.129,0.092,0.203,0.203,0.24L37.71,12.657z M33,7.463
			c0,0.223,0.166,0.406,0.387,0.406c0.203,0,0.389-0.184,0.389-0.406c0-0.221-0.186-0.424-0.389-0.424
			C33.166,7.04,33,7.243,33,7.463z M33.812,12.971c0.223,0,0.406-0.166,0.406-0.389c0-0.221-0.184-0.443-0.406-0.443
			c-0.203,0-0.389,0.205-0.389,0.426C33.423,12.805,33.609,12.971,33.812,12.971z"/>
		<path fill="#8A181A" d="M36.251,3.028c1.773,0.037,2.865,1.479,3.086,2.811c-1.793-0.443-2.939-0.443-4.176-0.48
			c-0.5,0-1.203,0.037-1.664,0.074C33.517,3.897,34.882,3.01,36.251,3.028z M35.125,4.489c1.033,0,1.645,0,2.809,0.24
			c-0.5-0.498-1.018-0.758-1.865-0.758c-0.723,0-1.24,0.295-1.387,0.518H35.125z"/>
		<path fill="#8A181A" d="M41.259,9.219V8.61c0-1.57,1.127-2.42,2.66-2.42c1.479,0,2.625,0.904,2.625,2.402v3.99
			c0,0.721-0.611,1.258-1.312,1.258c-0.738,0-1.256-0.555-1.256-1.258c0-0.721,0.518-1.275,1.256-1.275c0.092,0,0.186,0,0.277,0.02
			V8.592c0-0.943-0.701-1.443-1.59-1.443c-0.943,0-1.625,0.463-1.625,1.461v0.48L41.259,9.219z M45.232,12.971
			c0.221,0,0.406-0.166,0.406-0.389c0-0.221-0.186-0.426-0.406-0.426s-0.406,0.205-0.406,0.426
			C44.826,12.805,45.011,12.971,45.232,12.971z"/>
		<path fill="#8A181A" d="M49.259,6.301h1.037v5.043c0.092-0.018,0.184-0.018,0.275-0.018c0.703,0,1.258,0.555,1.258,1.275
			c0,0.684-0.555,1.275-1.258,1.275c-0.775,0-1.312-0.631-1.312-1.35V6.301z M50.572,12.176c-0.221,0-0.406,0.203-0.406,0.406
			c0,0.24,0.186,0.426,0.406,0.426c0.223,0,0.406-0.186,0.406-0.406C50.978,12.379,50.794,12.176,50.572,12.176z"/>
		<path fill="#8A181A" d="M57.113,7.592c0.518-0.258,1.035-0.979,1.035-1.551h1.109c0,0.812-0.443,1.551-0.996,1.977
			c0.424,0.279,0.627,0.686,0.627,1.238v3.4c0,0.629-0.426,1.09-1.09,1.09h-3.4v-0.85l0.535-0.111V10.2
			c0-0.555,0.314-0.832,0.629-1.129c0.203-0.184,0.461-0.498,0.498-0.812c0,0-0.146-0.092-0.295-0.203
			c-0.166,0.443-0.648,0.814-1.238,0.814c-0.758,0-1.238-0.648-1.238-1.277c0-0.756,0.592-1.291,1.293-1.291
			c0.371,0,0.629,0.129,0.924,0.367l0.574,0.463c0.035-0.295,0.074-0.592,0.092-0.83h0.941V7.592z M54.544,8
			c0.203,0,0.389-0.186,0.389-0.408c0-0.221-0.186-0.424-0.389-0.424c-0.221,0-0.406,0.203-0.406,0.424
			C54.138,7.815,54.324,8,54.544,8z M57.078,8.573c-0.111,0.518-0.463,0.832-0.74,1.072c-0.184,0.166-0.369,0.369-0.369,0.555v2.568
			h1.775c0.035,0,0.109-0.018,0.109-0.111v-3.4C57.853,8.907,57.484,8.682,57.078,8.573z"/>
		<path fill="#8A181A" d="M59.48,4.84c0.092,0.277,0.166,0.555,0.238,0.998c-1.516-0.352-2.586-0.443-4.156-0.48
			c-0.5,0-1.184,0.037-1.664,0.074c0.02-1.535,1.404-2.422,2.771-2.404c0.666,0.02,1.275,0.242,1.775,0.648V2.604h1.035V4.84z
			 M56.466,3.971c-0.721,0-1.219,0.26-1.367,0.518h0.48c1.145,0,1.57,0,2.754,0.24C57.833,4.231,57.298,3.971,56.466,3.971z"/>
		<path fill="#8A181A" d="M66.593,12.768V6.301h1.035v7.445h-4.195c-0.609,0-1.09-0.5-1.09-1.072v-1.865
			c0-0.295,0.094-0.592,0.277-0.758c-0.572-0.334-0.85-0.961-0.85-1.627c0-0.887,0.738-2.217,1.811-2.217
			c0.738,0,1.258,0.555,1.258,1.256c0,0.723-0.52,1.275-1.258,1.275c-0.277,0-0.555-0.092-0.777-0.277
			c0.02,0.758,0.592,0.906,1.018,0.906h1.459l-0.184,0.887c0,0-1.312,0.018-1.387,0.037c-0.258,0.057-0.332,0.387-0.332,0.592v1.791
			c0,0.057,0.092,0.094,0.148,0.094H66.593z M63.582,7.057c-0.221,0-0.406,0.205-0.406,0.426c0,0.186,0.186,0.387,0.406,0.387
			c0.203,0,0.389-0.201,0.389-0.406C63.97,7.262,63.785,7.057,63.582,7.057z"/>
		<path fill="#8A181A" d="M75.224,12.657V6.301h1.053v7.445h-0.76c-0.664-0.258-1.42-0.518-2.125-0.758
			c-0.256-0.092-0.516-0.184-0.773-0.258c-0.057,0.609-0.648,1.109-1.295,1.109c-0.684,0-1.256-0.555-1.256-1.275
			c0-0.629,0.443-1.127,1.09-1.238V8.704c-0.092,0.018-0.166,0.018-0.26,0.018c-0.738,0-1.256-0.555-1.256-1.258
			c0-0.719,0.518-1.273,1.256-1.273c0.76,0,1.295,0.518,1.295,1.273v3.863c0,0.129,0.092,0.203,0.203,0.24L75.224,12.657z
			 M70.511,7.463c0,0.223,0.166,0.406,0.387,0.406c0.203,0,0.389-0.184,0.389-0.406c0-0.221-0.186-0.424-0.389-0.424
			C70.677,7.04,70.511,7.243,70.511,7.463z M71.324,12.971c0.223,0,0.406-0.166,0.406-0.389c0-0.221-0.184-0.443-0.406-0.443
			c-0.203,0-0.389,0.205-0.389,0.426C70.935,12.805,71.121,12.971,71.324,12.971z"/>
		<path fill="#8A181A" d="M78.603,9.219V8.553c0-1.588,1.461-2.383,2.885-2.383c0.572,0,1.238,0.168,1.756,0.498
			c0.092-0.203,0.166-0.387,0.184-0.793l1.109,0.092c0,0.721-0.24,1.107-0.535,1.441c0.203,0.332,0.295,0.721,0.295,1.127v5.211
			h-1.053v-1.865c-0.666-0.758-1.312-1.441-1.996-2.199c-0.666,0.35-1.184,0.924-1.312,1.607c0.074-0.018,0.24-0.018,0.352-0.018
			c0.719,0,1.236,0.646,1.236,1.33s-0.607,1.201-1.293,1.201c-1.07,0-1.404-0.98-1.404-1.867c0-1.553,1.018-2.643,2.514-3.455
			l1.904,1.959V8.536c0-0.961-0.869-1.404-1.756-1.404c-0.869,0-1.848,0.443-1.848,1.422V9.09L78.603,9.219z M80.619,12.545
			c0-0.201-0.166-0.406-0.369-0.426c-0.223-0.018-0.426,0.168-0.426,0.408s0.186,0.426,0.406,0.426
			C80.433,12.954,80.619,12.786,80.619,12.545z"/>
		<path fill="#8A181A" d="M91.263,12.768V6.301h1.035v7.445h-4.195c-0.609,0-1.09-0.5-1.09-1.072v-1.865
			c0-0.295,0.092-0.592,0.277-0.758c-0.574-0.334-0.852-0.961-0.852-1.627c0-0.887,0.738-2.217,1.811-2.217
			c0.74,0,1.258,0.555,1.258,1.256c0,0.723-0.518,1.275-1.258,1.275c-0.275,0-0.553-0.092-0.775-0.277
			c0.02,0.758,0.592,0.906,1.018,0.906h1.459l-0.184,0.887c0,0-1.312,0.018-1.387,0.037c-0.258,0.057-0.334,0.387-0.334,0.592v1.791
			c0,0.057,0.094,0.094,0.148,0.094H91.263z M88.25,7.057c-0.221,0-0.406,0.205-0.406,0.426c0,0.186,0.186,0.387,0.406,0.387
			c0.205,0,0.389-0.201,0.389-0.406C88.638,7.262,88.455,7.057,88.25,7.057z"/>
		<path fill="#8A181A" d="M99.394,8.553c0-1.496-1.164-2.4-2.625-2.4c-1.479,0-2.623,0.904-2.623,2.42v0.74l1.033-0.131V8.573
			c0-0.941,0.703-1.459,1.59-1.459c0.869,0,1.59,0.498,1.59,1.439v5.193h1.035V8.553z"/>
		<path fill="#8A181A" d="M106.509,12.657V6.301h1.053v7.445h-0.758c-0.666-0.258-1.424-0.518-2.125-0.758
			c-0.26-0.092-0.518-0.184-0.777-0.258c-0.055,0.609-0.646,1.109-1.293,1.109c-0.686,0-1.258-0.555-1.258-1.275
			c0-0.629,0.445-1.127,1.092-1.238V8.704c-0.092,0.018-0.168,0.018-0.26,0.018c-0.738,0-1.256-0.555-1.256-1.258
			c0-0.719,0.518-1.273,1.256-1.273c0.758,0,1.295,0.518,1.295,1.273v3.863c0,0.129,0.092,0.203,0.203,0.24L106.509,12.657z
			 M101.796,7.463c0,0.223,0.166,0.406,0.387,0.406c0.203,0,0.389-0.184,0.389-0.406c0-0.221-0.186-0.424-0.389-0.424
			C101.962,7.04,101.796,7.243,101.796,7.463z M102.609,12.971c0.221,0,0.408-0.166,0.408-0.389c0-0.221-0.188-0.443-0.408-0.443
			c-0.203,0-0.389,0.205-0.389,0.426C102.22,12.805,102.406,12.971,102.609,12.971z"/>
	</g>
	<g>
		<path fill="#8A181A" d="M33.082,20.485c-0.307,0-0.549-0.252-0.549-0.549c0-0.295,0.242-0.545,0.549-0.545
			c0.293,0,0.547,0.26,0.547,0.555v1.91c0,0,0.018,0,1.029-2.33c1.021,2.33,1.021,2.33,1.021,2.33v-2.402h0.312v3.539h-0.295
			l-0.018-0.502l-1.021-2.213l-1.029,2.213l-0.02,0.502h-0.297v-2.57C33.242,20.456,33.162,20.485,33.082,20.485z M33.082,19.676
			c-0.145,0-0.252,0.127-0.252,0.26c0,0.137,0.107,0.252,0.252,0.252c0.133,0,0.25-0.115,0.25-0.252
			C33.332,19.793,33.214,19.676,33.082,19.676z"/>
		<path fill="#8A181A" d="M33.609,18.836c0.008-0.646,0.637-1.021,1.264-1.014c0.814,0.018,1.307,0.672,1.406,1.236
			c-0.771-0.188-1.326-0.232-1.953-0.25C34.083,18.809,33.843,18.817,33.609,18.836z M34.791,18.12
			c-0.312,0-0.742,0.205-0.742,0.355c0,0.064,0.055,0.057,0.1,0.057c0.68,0,0.93-0.027,1.729,0.17
			C35.644,18.325,35.205,18.12,34.791,18.12z"/>
		<path fill="#8A181A" d="M39.406,20.485c-0.305,0-0.547-0.252-0.547-0.549c0-0.295,0.242-0.545,0.547-0.545
			c0.297,0,0.547,0.26,0.547,0.555v1.91c0,0,0.018,0,1.029-2.33c1.021,2.33,1.021,2.33,1.021,2.33v-2.402h0.314v3.539h-0.297
			l-0.018-0.502l-1.021-2.213l-1.029,2.213l-0.018,0.502h-0.297v-2.57C39.568,20.456,39.486,20.485,39.406,20.485z M39.406,19.676
			c-0.143,0-0.25,0.127-0.25,0.26c0,0.137,0.107,0.252,0.25,0.252c0.135,0,0.252-0.115,0.252-0.252
			C39.658,19.793,39.541,19.676,39.406,19.676z"/>
		<path fill="#8A181A" d="M39.935,18.836c0.008-0.646,0.637-1.021,1.264-1.014c0.814,0.018,1.307,0.672,1.404,1.236
			c-0.77-0.188-1.324-0.232-1.951-0.25C40.41,18.809,40.167,18.817,39.935,18.836z M41.117,18.12c-0.314,0-0.742,0.205-0.742,0.355
			c0,0.064,0.053,0.057,0.098,0.057c0.682,0,0.932-0.027,1.73,0.17C41.968,18.325,41.529,18.12,41.117,18.12z"/>
		<path fill="#8A181A" d="M45.345,22.993v-0.252l0.271-0.045V20.79l0.312,0.045v1.861h1.352c0.1,0,0.135-0.053,0.135-0.15v-1.471
			c0-0.17-0.027-0.24-0.205-0.268l-1.98-0.242v-0.127c0-0.6,0.367-1.012,0.914-1.012c0.35,0,0.824,0.09,1.174,0.09
			c0.125,0,0.268-0.027,0.35-0.125l0.232,0.188c-0.125,0.17-0.367,0.242-0.582,0.242c-0.35,0-0.824-0.098-1.174-0.098
			c-0.342,0-0.527,0.223-0.564,0.572l1.693,0.215c0.312,0.045,0.457,0.242,0.457,0.539v1.486c0,0.26-0.162,0.457-0.43,0.457H45.345z
			"/>
		<path fill="#8A181A" d="M52.246,19.391c-0.646,0-1.156,0.377-1.336,1.127l0.502,0.092c-0.17,0.088-0.268,0.314-0.268,0.52v0.879
			c-0.072-0.037-0.152-0.055-0.234-0.055c-0.295,0-0.545,0.24-0.545,0.545c0,0.297,0.25,0.539,0.545,0.539
			c0.332,0,0.547-0.26,0.547-0.572V21.12c0-0.242,0.143-0.447,0.377-0.51l-0.055-0.188l-0.475-0.127
			c0.17-0.367,0.564-0.609,0.969-0.609c0.502,0,0.949,0.25,0.949,0.816v2.49h0.314v-2.49C53.537,19.741,52.935,19.391,52.246,19.391
			z M50.9,22.741c-0.123,0-0.25-0.105-0.25-0.242c0-0.143,0.127-0.248,0.25-0.248c0.154,0,0.252,0.115,0.252,0.248
			C51.152,22.635,51.037,22.741,50.9,22.741z"/>
		<path fill="#8A181A" d="M54.941,18.047l-0.205-0.225c-0.367,0.332-0.939,0.572-1.434,0.619c0.045-0.09,0.08-0.18,0.08-0.279
			c0-0.303-0.25-0.547-0.545-0.547c-0.297,0-0.547,0.244-0.547,0.547c0,0.475,0.502,0.602,0.887,0.602
			C53.787,18.764,54.496,18.459,54.941,18.047z M53.087,18.155c0,0.135-0.115,0.25-0.25,0.25c-0.145,0-0.252-0.115-0.252-0.25
			c0-0.145,0.115-0.26,0.252-0.26C52.972,17.895,53.087,18.01,53.087,18.155z"/>
		<path fill="#8A181A" d="M57.326,23.047c-0.33,0-0.555-0.26-0.555-0.582v-1.354c0-0.207,0.098-0.414,0.277-0.502l-0.502-0.092
			c0.17-0.75,0.646-1.127,1.289-1.127c0.709,0,1.238,0.385,1.238,1.111v2.123l1.064-0.637c0.135-0.08,0.172-0.178,0.172-0.34v-2.195
			h0.312v2.525c0.232,0.074,0.395,0.289,0.395,0.52c0,0.307-0.242,0.549-0.547,0.549c-0.332,0-0.547-0.252-0.547-0.574l-0.904,0.52
			h-0.26v-2.49c0-0.529-0.412-0.816-0.914-0.816c-0.404,0-0.734,0.242-0.904,0.609l0.465,0.127l0.055,0.188
			c-0.225,0.062-0.367,0.26-0.367,0.502v0.904c0.07-0.037,0.152-0.062,0.232-0.062c0.305,0,0.547,0.252,0.547,0.545
			C57.873,22.805,57.63,23.047,57.326,23.047z M57.576,22.499c0-0.133-0.107-0.248-0.25-0.248c-0.133,0-0.242,0.105-0.242,0.248
			c0,0.137,0.109,0.252,0.242,0.252C57.468,22.75,57.576,22.635,57.576,22.499z M60.47,22.75c0.135,0,0.252-0.107,0.252-0.252
			c0-0.133-0.117-0.248-0.252-0.248s-0.25,0.115-0.25,0.248C60.22,22.643,60.328,22.75,60.47,22.75z"/>
		<path fill="#8A181A" d="M64.369,21.317c0-0.322,0.527-0.537,0.527-1.047v-0.816h-0.26l-0.035,0.492l-0.432-0.357
			c-0.105-0.092-0.205-0.135-0.348-0.135c-0.295,0-0.566,0.232-0.566,0.557c0,0.268,0.227,0.545,0.539,0.545
			c0.305,0,0.537-0.232,0.537-0.482l0.252,0.197c0,0.412-0.52,0.555-0.52,1.047v1.676h0.277c0,0,0.027-0.223,0.062-0.305
			c0.225-0.457,0.959-1.916,1.389-2.76c0.055-0.107,0.09-0.143,0.143-0.143c0.314,0,0.342,0.322,0.342,0.6v2.607h0.312v-2.607
			c0-0.709-0.277-0.932-0.896-0.932l-1.156,2.295c-0.043,0.107-0.213,0.537-0.213,0.537L64.369,21.317z M63.804,19.758
			c0.133,0,0.25,0.117,0.25,0.252c0,0.133-0.117,0.248-0.25,0.248c-0.135,0-0.252-0.115-0.252-0.248
			C63.552,19.875,63.669,19.758,63.804,19.758z"/>
		<path fill="#8A181A" d="M66.25,17.84c-0.252,0.115-0.475,0.279-0.475,0.609c0,0.27,0.188,0.539,0.527,0.539
			c0.297,0,0.504-0.262,0.504-0.521c0-0.197-0.145-0.385-0.334-0.475c0.172-0.062,0.414-0.107,0.807-0.502l-0.205-0.133
			C66.859,17.581,66.529,17.715,66.25,17.84z M66.302,18.235c0.127,0,0.234,0.107,0.234,0.24c0,0.137-0.107,0.234-0.234,0.234
			c-0.125,0-0.242-0.098-0.242-0.234C66.06,18.342,66.177,18.235,66.302,18.235z"/>
		<path fill="#8A181A" d="M70.927,19.391c-0.646,0-1.201,0.377-1.371,1.127l0.502,0.092c-0.18,0.088-0.324,0.305-0.324,0.51v1.873
			h0.314V21.12c0-0.242,0.197-0.447,0.422-0.51l-0.055-0.188l-0.465-0.127c0.17-0.367,0.582-0.609,0.984-0.609
			c0.512,0,0.977,0.234,0.977,0.816v2.49h0.314v-2.49C72.226,19.741,71.607,19.391,70.927,19.391z"/>
		<path fill="#8A181A" d="M77.224,20.493c0-0.689-0.537-1.111-1.199-1.111c-0.672,0-1.201,0.422-1.201,1.121v0.27l0.314-0.045
			v-0.225c0-0.52,0.385-0.826,0.887-0.826c0.494,0,0.887,0.297,0.887,0.816v2.5h0.312V20.493z"/>
		<path fill="#8A181A" d="M79.599,20.565l1.479,0.188c0.18,0.027,0.207,0.135,0.207,0.314v0.941
			c-0.072-0.037-0.152-0.055-0.234-0.055c-0.295,0-0.545,0.24-0.545,0.545c0,0.297,0.25,0.539,0.545,0.539
			c0.297,0,0.547-0.242,0.547-0.539v-1.432c0-0.332-0.125-0.574-0.465-0.619l-1.219-0.152c0.035-0.277,0.172-0.572,0.475-0.572
			c0.35,0,0.736,0.098,1.084,0.098c0.215,0,0.447-0.072,0.582-0.242l-0.234-0.188c-0.08,0.098-0.223,0.125-0.348,0.125
			c-0.348,0-0.734-0.09-1.084-0.09C79.744,19.426,79.599,20.081,79.599,20.565z M81.05,22.25c0.145,0,0.25,0.115,0.25,0.248
			c0,0.137-0.115,0.242-0.25,0.242c-0.133,0-0.25-0.105-0.25-0.242C80.8,22.356,80.917,22.25,81.05,22.25z"/>
		<path fill="#8A181A" d="M84.787,19.463h0.314v2.562c0.072-0.047,0.152-0.062,0.232-0.062c0.297,0,0.547,0.242,0.547,0.547
			c0,0.295-0.25,0.545-0.547,0.545c-0.322,0-0.547-0.268-0.547-0.582V19.463z M85.333,22.258c-0.135,0-0.252,0.117-0.252,0.24
			c0,0.137,0.117,0.26,0.252,0.26s0.25-0.115,0.25-0.248C85.583,22.375,85.468,22.258,85.333,22.258z"/>
		<path fill="#8A181A" d="M88.103,20.565l1.479,0.188c0.178,0.027,0.205,0.135,0.205,0.314v0.941
			c-0.07-0.037-0.152-0.055-0.232-0.055c-0.297,0-0.547,0.24-0.547,0.545c0,0.297,0.25,0.539,0.547,0.539
			c0.295,0,0.547-0.242,0.547-0.539v-1.432c0-0.332-0.127-0.574-0.467-0.619l-1.217-0.152c0.033-0.277,0.168-0.572,0.473-0.572
			c0.35,0,0.734,0.098,1.084,0.098c0.217,0,0.449-0.072,0.584-0.242l-0.234-0.188c-0.08,0.098-0.223,0.125-0.35,0.125
			c-0.35,0-0.734-0.09-1.084-0.09C88.246,19.426,88.103,20.081,88.103,20.565z M89.554,22.25c0.145,0,0.25,0.115,0.25,0.248
			c0,0.137-0.115,0.242-0.25,0.242s-0.252-0.105-0.252-0.242C89.302,22.356,89.419,22.25,89.554,22.25z"/>
		<path fill="#8A181A" d="M90.423,18.655c0.055,0.137,0.09,0.262,0.107,0.404c-0.652-0.152-1.139-0.232-1.953-0.25
			c-0.242,0-0.475,0.008-0.717,0.027c0.008-0.646,0.645-1.021,1.271-1.014c0.377,0.01,0.746,0.188,0.994,0.467v-0.674h0.297V18.655z
			 M89.042,18.12c-0.322,0-0.744,0.205-0.744,0.367c0,0.053,0.055,0.045,0.1,0.045c0.781,0,0.896-0.027,1.729,0.17
			C89.894,18.325,89.455,18.12,89.042,18.12z"/>
		<path fill="#8A181A" d="M95.601,22.696v-3.242h0.314v3.539h-1.988c-0.242,0-0.449-0.205-0.449-0.447v-0.932
			c0-0.189,0.135-0.367,0.225-0.396c-0.34-0.115-0.502-0.428-0.502-0.787c0-0.412,0.332-1.021,0.797-1.021
			c0.305,0,0.547,0.242,0.547,0.537c0,0.305-0.242,0.547-0.547,0.547c-0.18,0-0.393-0.117-0.457-0.314
			c-0.018,0.064-0.025,0.189-0.025,0.252c0,0.475,0.35,0.557,0.609,0.557h0.6l-0.055,0.277c0,0-0.574,0.008-0.617,0.018
			c-0.207,0.045-0.26,0.242-0.26,0.375v0.898c0,0.08,0.062,0.141,0.152,0.141H95.601z M93.998,19.706c-0.133,0-0.25,0.107-0.25,0.25
			c0,0.135,0.117,0.24,0.25,0.24c0.145,0,0.252-0.105,0.252-0.25C94.25,19.813,94.142,19.706,93.998,19.706z"/>
		<path fill="#8A181A" d="M101.455,23.047c0.293,0,0.545-0.242,0.545-0.549c0-0.24-0.162-0.445-0.395-0.51v-2.535h-0.312v2.312
			c0,0.107-0.064,0.242-0.172,0.287l-1.469,0.617v-2.715c0-0.314-0.234-0.547-0.547-0.547c-0.305,0-0.547,0.242-0.547,0.547
			c0,0.295,0.242,0.537,0.547,0.537c0.08,0,0.16-0.018,0.232-0.055v2.555h0.26l1.309-0.52
			C100.906,22.788,101.121,23.047,101.455,23.047z M99.105,19.706c0.135,0,0.242,0.115,0.242,0.25s-0.107,0.25-0.242,0.25
			c-0.143,0-0.252-0.115-0.252-0.25C98.853,19.813,98.962,19.706,99.105,19.706z M101.201,22.499c0-0.133,0.117-0.248,0.254-0.248
			c0.133,0,0.248,0.115,0.248,0.248c0,0.145-0.115,0.252-0.248,0.252C101.318,22.75,101.201,22.635,101.201,22.499z"/>
		<path fill="#8A181A" d="M104.193,20.565l1.479,0.188c0.18,0.027,0.207,0.135,0.207,0.314v0.941
			c-0.07-0.037-0.152-0.055-0.232-0.055c-0.297,0-0.547,0.24-0.547,0.545c0,0.297,0.25,0.539,0.547,0.539
			c0.295,0,0.545-0.242,0.545-0.539v-1.432c0-0.332-0.123-0.574-0.465-0.619l-1.219-0.152c0.037-0.277,0.172-0.572,0.477-0.572
			c0.348,0,0.734,0.098,1.084,0.098c0.215,0,0.447-0.072,0.58-0.242l-0.232-0.188c-0.08,0.098-0.225,0.125-0.348,0.125
			c-0.35,0-0.736-0.09-1.084-0.09C104.337,19.426,104.193,20.081,104.193,20.565z M105.646,22.25c0.143,0,0.25,0.115,0.25,0.248
			c0,0.137-0.115,0.242-0.25,0.242s-0.252-0.105-0.252-0.242C105.394,22.356,105.511,22.25,105.646,22.25z"/>
		<path fill="#8A181A" d="M106.283,23.315h0.277v1.059c0,0.24-0.162,0.412-0.395,0.412h-0.645v-0.637
			c-0.062,0.025-0.117,0.045-0.189,0.045c-0.26,0-0.465-0.205-0.465-0.465c0-0.254,0.205-0.469,0.465-0.469
			c0.252,0,0.467,0.207,0.467,0.469v0.779h0.367c0.025,0,0.117,0,0.117-0.135V23.315z M105.332,23.934
			c0.109,0,0.207-0.09,0.207-0.205c0-0.109-0.098-0.209-0.207-0.209c-0.117,0-0.205,0.1-0.205,0.209
			C105.126,23.844,105.214,23.934,105.332,23.934z"/>
		<path fill="#8A181A" d="M105.109,17.868c0.008-0.322,0.277-0.527,0.527-0.51c0.357,0.018,0.547,0.312,0.529,0.652
			c-0.01,0.189-0.125,0.477-0.314,0.574c0.582-0.098,0.934-0.529,1.102-1.064l0.271,0.07c-0.271,0.904-0.854,1.344-1.75,1.289
			l-0.016-0.232c0.17-0.045,0.305-0.205,0.33-0.332c-0.072,0.037-0.143,0.045-0.223,0.045
			C105.314,18.342,105.099,18.135,105.109,17.868z M105.376,17.868c0,0.135,0.109,0.242,0.242,0.242
			c0.135,0,0.242-0.107,0.242-0.242s-0.107-0.242-0.242-0.242C105.486,17.625,105.376,17.733,105.376,17.868z"/>
	</g>
</g>
</svg>
