<?xml version="1.0" encoding="utf-8"?>
<!-- Generator: Adobe Illustrator 16.0.0, SVG Export Plug-In . SVG Version: 6.00 Build 0)  -->
<!DOCTYPE svg PUBLIC "-//W3C//DTD SVG 1.1//EN" "http://www.w3.org/Graphics/SVG/1.1/DTD/svg11.dtd">
<svg version="1.1"
	 id="Layer_1" xmlns:dc="http://purl.org/dc/elements/1.1/" xmlns:cc="http://creativecommons.org/ns#" xmlns:rdf="http://www.w3.org/1999/02/22-rdf-syntax-ns#"
	 xmlns="http://www.w3.org/2000/svg" xmlns:xlink="http://www.w3.org/1999/xlink" x="0px" y="0px" width="24px" height="24px"
	 viewBox="0 0 24 24" enable-background="new 0 0 24 24" xml:space="preserve">
<rect x="0.847" y="2.975" fill="#666666" width="16.81" height="20.606"/>
<path fill="#FFFFFF" stroke="#FFFFFF" stroke-linecap="round" stroke-linejoin="round" stroke-miterlimit="10" d="M8.067,17.38
	l-0.54-0.54l3.799-3.802l0.539,0.542L8.067,17.38z M6.328,15.64l3.823-3.823l0.539,0.54L6.867,16.18L6.328,15.64z M17.815,0.894
	L4.824,13.841l-1.501,6.603l6.522-1.687L22.41,6.234L17.815,0.894z"/>
<path fill="#6E0904" stroke="#6E0904" stroke-width="0.5" stroke-linecap="round" stroke-linejoin="round" stroke-miterlimit="10" d="
	M17.06,3.093L5.615,14.497l-1.055,4.711l4.711-1.057L20.714,6.748L17.06,3.093z"/>
<rect x="18.168" y="2.169" transform="matrix(0.7071 0.7072 -0.7072 0.7071 8.2427 -13.7624)" fill="#6E0904" stroke="#6E0904" stroke-width="0.5" stroke-linecap="round" stroke-linejoin="round" stroke-miterlimit="10" width="5.13" height="1.798"/>
</svg>
