<?xml version="1.0" encoding="utf-8"?>
<!-- Generator: Adobe Illustrator 16.0.4, SVG Export Plug-In . SVG Version: 6.00 Build 0)  -->
<!DOCTYPE svg PUBLIC "-//W3C//DTD SVG 1.1//EN" "http://www.w3.org/Graphics/SVG/1.1/DTD/svg11.dtd">
<svg version="1.1" id="Layer_1" xmlns="http://www.w3.org/2000/svg" xmlns:xlink="http://www.w3.org/1999/xlink" x="0px" y="0px"
	 width="31px" height="31px" viewBox="0 0 31 31" enable-background="new 0 0 31 31" xml:space="preserve">
<g>
	<g>
		<path fill-rule="evenodd" clip-rule="evenodd" fill="#E4E4E4" d="M0,0h31v31H0V0z"/>
	</g>
	<g opacity="0.6">
		<path fill-rule="evenodd" clip-rule="evenodd" fill="#535353" d="M18.401,8.597c1.723-0.048,2.351,0.441,3.264,1.094
			c0.786-0.252,1.572-0.504,2.357-0.757c-0.368,0.849-0.88,1.235-1.45,1.853c0.665-0.168,1.329-0.337,1.994-0.505
			c-0.507,0.667-1.16,1.321-1.903,1.77c0.107,5.313-3.118,8.632-7.344,9.938c-2.812,0.868-7.247,0.346-8.885-1.18
			c2.27,0.066,4.347-0.314,5.349-1.432c-1.688-0.067-3.064-1.088-3.354-2.442c0.03,0,0.061,0,0.091,0
			c0.402,0.122,1.073,0.132,1.36-0.085c-1.685-0.299-2.502-1.355-2.72-3.032c0.03-0.027-0.03-0.309,0-0.337
			c0.483,0.141,0.967,0.281,1.45,0.422c0-0.028,0-0.057,0-0.085c-0.459-0.471-0.979-0.881-1.27-1.515
			C6.888,11.312,7.15,9.589,7.704,9.27c1.256,1.808,4.68,3.383,7.524,3.623c0.03-0.057,0.061-0.112,0.091-0.169
			C14.815,10.249,16.833,8.77,18.401,8.597z"/>
	</g>
</g>
</svg>
