<?xml version="1.0" encoding="utf-8"?>
<!-- Generator: Adobe Illustrator 16.0.4, SVG Export Plug-In . SVG Version: 6.00 Build 0)  -->
<!DOCTYPE svg PUBLIC "-//W3C//DTD SVG 1.1//EN" "http://www.w3.org/Graphics/SVG/1.1/DTD/svg11.dtd">
<svg version="1.1" id="Layer_1" xmlns="http://www.w3.org/2000/svg" xmlns:xlink="http://www.w3.org/1999/xlink" x="0px" y="0px"
	 width="31px" height="31px" viewBox="0 0 31 31" enable-background="new 0 0 31 31" xml:space="preserve">
<g>
	<g>
		<path fill-rule="evenodd" clip-rule="evenodd" fill="#E4E4E4" d="M0,0h31v31H0V0z"/>
	</g>
	<g opacity="0.6">
		<g>
			<path fill-rule="evenodd" clip-rule="evenodd" fill="#535353" d="M11.268,13.999v3.004h4.048
				c-0.604,1.596-2.148,2.729-3.956,2.729c-2.338,0-4.233-1.895-4.233-4.231s1.896-4.233,4.233-4.233
				c1.041,0,1.993,0.378,2.731,1.002l2.118-2.076c-1.277-1.169-2.98-1.884-4.85-1.884c-3.972,0-7.191,3.219-7.191,7.19
				s3.22,7.19,7.191,7.19c3.969,0,7.19-3.219,7.19-7.19c0-0.516-0.056-1.018-0.158-1.502H11.268z M24.329,14.226v-2.503h-1.821
				v2.503h-2.503v1.819h2.503v2.505h1.821v-2.505h2.503v-1.819H24.329z"/>
		</g>
	</g>
</g>
</svg>
