<?xml version="1.0" encoding="utf-8"?>
<!-- Generator: Adobe Illustrator 16.0.4, SVG Export Plug-In . SVG Version: 6.00 Build 0)  -->
<!DOCTYPE svg PUBLIC "-//W3C//DTD SVG 1.1//EN" "http://www.w3.org/Graphics/SVG/1.1/DTD/svg11.dtd">
<svg version="1.1" id="Layer_1" xmlns="http://www.w3.org/2000/svg" xmlns:xlink="http://www.w3.org/1999/xlink" x="0px" y="0px"
	 width="31px" height="31px" viewBox="0 0 31 31" enable-background="new 0 0 31 31" xml:space="preserve">
<g>
	<g>
		<path fill-rule="evenodd" clip-rule="evenodd" fill="#00C300" d="M0,0h31v31H0V0z"/>
	</g>
	<g>
		<g>
			<path fill="#FFFFFF" d="M15.5,6.536c-5.186,0-9.408,3.425-9.408,7.635c0,3.773,3.348,6.936,7.867,7.532
				c0.309,0.065,0.725,0.202,0.83,0.465c0.096,0.237,0.062,0.609,0.031,0.85c0,0-0.111,0.664-0.135,0.807
				c-0.043,0.236-0.189,0.929,0.814,0.506s5.418-3.189,7.393-5.463c1.363-1.494,2.016-3.012,2.016-4.696
				C24.908,9.961,20.688,6.536,15.5,6.536z M11.816,16.676H9.947c-0.271,0-0.492-0.222-0.492-0.494v-3.738
				c0-0.271,0.221-0.493,0.492-0.493c0.273,0,0.494,0.222,0.494,0.493v3.245h1.375c0.273,0,0.494,0.221,0.494,0.493
				S12.09,16.676,11.816,16.676z M13.75,16.182c0,0.272-0.221,0.494-0.492,0.494s-0.492-0.222-0.492-0.494v-3.738
				c0-0.271,0.221-0.493,0.492-0.493s0.492,0.222,0.492,0.493V16.182z M18.252,16.182c0,0.213-0.137,0.401-0.34,0.469
				c-0.049,0.017-0.102,0.025-0.154,0.025c-0.154,0-0.301-0.074-0.395-0.197l-1.916-2.608v2.312c0,0.272-0.223,0.494-0.494,0.494
				s-0.492-0.222-0.492-0.494v-3.738c0-0.213,0.135-0.4,0.336-0.469c0.053-0.016,0.104-0.024,0.156-0.024
				c0.154,0,0.303,0.073,0.395,0.197l1.916,2.61v-2.314c0-0.271,0.223-0.493,0.494-0.493s0.494,0.222,0.494,0.493V16.182z
				 M21.275,13.819c0.271,0,0.492,0.221,0.492,0.493s-0.221,0.493-0.492,0.493h-1.377v0.883h1.377c0.271,0,0.492,0.221,0.492,0.493
				s-0.221,0.494-0.492,0.494h-1.869c-0.271,0-0.492-0.222-0.492-0.494v-1.867c0-0.001,0-0.001,0-0.002c0,0,0,0,0-0.001v-1.866
				c0-0.001,0-0.001,0-0.002c0-0.271,0.221-0.493,0.492-0.493h1.869c0.271,0,0.492,0.222,0.492,0.493
				c0,0.272-0.221,0.493-0.492,0.493h-1.377v0.883H21.275z"/>
		</g>
	</g>
</g>
</svg>
