<?xml version="1.0" encoding="utf-8"?>
<!-- Generator: Adobe Illustrator 16.0.0, SVG Export Plug-In . SVG Version: 6.00 Build 0)  -->
<!DOCTYPE svg PUBLIC "-//W3C//DTD SVG 1.1//EN" "http://www.w3.org/Graphics/SVG/1.1/DTD/svg11.dtd">
<svg version="1.1" id="Layer_1" xmlns="http://www.w3.org/2000/svg" xmlns:xlink="http://www.w3.org/1999/xlink" x="0px" y="0px"
	 width="364.706px" height="108.235px" viewBox="0 0 364.706 108.235" enable-background="new 0 0 364.706 108.235"
	 xml:space="preserve">
<g>
	<g>
		<g>
			<g>
				<path fill="#B42024" d="M73.68,56.236l-0.051-0.547c0,0.081-0.016,0.177-0.041,0.269C73.588,56.079,73.629,56.14,73.68,56.236z"
					/>
				<polygon fill="#B42024" points="73.613,55.184 73.613,55.087 73.588,55.001 				"/>
				<path fill="#B42024" d="M73.518,54.98c-0.016,0.046-0.025,0.142-0.041,0.172L73.518,54.98z"/>
				<path fill="#B42024" d="M74.383,60.22c-0.051-0.081-0.142-0.237-0.142-0.243c-0.015-0.46-0.157-0.875-0.313-1.29l-0.035,0.223
					c0.061,0.248,0.121,0.258,0.096,0.02c0.025,0.558,0.152,1.048,0.334,1.524C74.357,60.387,74.414,60.377,74.383,60.22z"/>
				<polygon fill="#B42024" points="74.424,60.716 74.322,60.453 74.317,60.468 74.424,60.736 				"/>
			</g>
		</g>
		<path fill="#B42024" d="M94.986,31.968c-0.016-0.005-0.016-0.025-0.016-0.035c0.046-0.045,0.092-0.096,0.137-0.146
			C95.072,31.842,95.017,31.897,94.986,31.968z"/>
		<path fill="#B42024" d="M66.982,26.097c0.137,0.08,0.364,0.303,0.369,0.309c-0.647,0.572-0.374,1.047-0.111,1.614l0.512-0.223
			c-0.066-0.334-0.34-0.359-0.563-0.091c0.628-0.617,0.684-1.297,0.461-1.924C67.393,25.863,67.089,25.909,66.982,26.097z
			 M83.525,42.528c0.178,0.061,0.39,0.065,0.491,0.101C83.854,42.579,83.678,42.538,83.525,42.528z M66.071,32.079l-0.415,0.016
			C65.803,32.11,65.985,32.079,66.071,32.079z M82.705,42.837c0.097-0.082,0.178-0.168,0.259-0.248c-0.021,0-0.056,0.01-0.071,0.015
			C82.832,42.68,82.771,42.771,82.705,42.837z M83.525,42.528c-0.188-0.051-0.339-0.133-0.299-0.314v-0.005l-0.263,0.38
			C83.141,42.522,83.333,42.503,83.525,42.528z M65.656,32.095c-0.157-0.01-0.304-0.066-0.359-0.213v-0.005
			c-0.01,0.111-0.01,0.233-0.03,0.339C65.378,32.161,65.499,32.11,65.656,32.095z M77.42,45.919
			c-0.688-0.207-1.341-0.328-1.624,0.279C76.494,46.411,77.122,46.278,77.42,45.919z M57.238,62.022
			c-0.512,0.258-0.694,0.562-0.496,0.774C57.283,62.554,57.703,62.296,57.238,62.022z M65.155,32.449
			c0.045-0.081,0.07-0.151,0.111-0.233c-0.021,0.01-0.041,0.021-0.051,0.031C65.2,32.308,65.186,32.378,65.155,32.449z
			 M56.731,65.94c0.005,0,0.011,0,0.011,0c-0.006-0.016-0.025-0.041-0.041-0.056C56.717,65.899,56.727,65.925,56.731,65.94z
			 M84.295,87.465c0.016-0.097,0.051-0.188,0.051-0.284l-0.021-0.263c-0.076-0.42-0.345-0.724-0.684-0.952l0.016-0.04
			c0,0-0.946-0.607-0.972-0.618c-0.238-0.151-0.461-0.304-0.644-0.435c0.051-0.203,0.106-0.466,0.106-0.765
			c0-0.663-0.283-1.145-0.774-1.428c-0.466-0.299-2.07-0.946-3.325-0.851c-0.486-0.835-1.079-1.848-2.066-2.531l-0.116-0.086
			l-0.121-0.051c-0.901-0.404-1.853-0.678-2.759-0.926c-1.084-0.314-2.096-0.603-2.881-1.059
			c-5.897-3.771-12.007-2.784-18.467-1.741l-4.247,0.638l-0.075,0.016l-0.046,0.021c-0.835,0.232-1.509,0.541-2.177,0.86
			c-0.557,0.269-1.104,0.521-1.609,0.647c-3.002,0.714-5.027,3.104-6.819,5.189c0,0-0.04,0.056-0.051,0.056
			c-1.635,1.893-2.91,3.174-5.775,3.619c-3.402,0.673-4.961,3.584-5.179,5.381l-0.025,0.486c0,0.476,0.127,0.865,0.299,1.22
			c-0.805,1.145-1.21,2.177-1.483,2.946c-0.471,1.261-0.765,2.07-2.399,2.961c6.479,2.684,13.9,3.099,21.054,2.754
			c13.875,0.537,29.983-3.563,42.785-13.921c-0.461-0.41-1.063-0.647-1.519-0.81C84.371,87.5,84.311,87.47,84.295,87.465z
			 M97.821,41.864c-0.289-4.99-1.848-9.391-4.323-13.156l-0.172,0.056c-0.051-0.172-0.086-0.329-0.117-0.481
			c-2.11-3.103-4.85-5.77-7.998-7.978C79.436,5.913,57.805,5.969,44.779,8.683c-7.927,0.439-15.688,3.179-22.126,9.162
			C13.43,23.979,6.014,33.78,4.455,51.878c-0.243,2.9-0.334,5.674-0.264,8.316C3.514,67.839,4.101,75.437,6.454,82.17
			c2.101,6.009,5.209,10.316,8.94,13.354c0.531-4.096,2.131-9.431,4.373-11.598l2.46-2.409c6.778-6.672,12.641-12.443,21.348-14.473
			c3.325-0.674,6.52-1.048,9.694-1.129c-0.324-0.309-0.72-0.563-0.744-0.86c-0.238-0.147,0.946-0.446,0.703-0.582
			c-0.329-0.365-1.822-1.221-1.727-0.674c0.197,0.81,0.512,1.342,0.739,2.065c-0.501-0.638-0.911-1.312-0.946-2.111
			c-0.035-0.506,0.471-1.204,0.258-1.822c-0.592-0.83-1.625-1.686-1.69-2.692c0.04-1.154-0.102-2.248-0.269-3.316
			c-1.256-0.298-2.496-0.678-3.716-1.144c-1.64-0.481-3.128-0.719-4.424-1.387c-2.526-1.337-5.568-2.02-8.322-3.347
			c-2.142-0.981-4.116-2.415-4.946-4.349c-3.047-2.875-5.441-6.58-7.532-9.973c-1.013-4.09-1.326-6.854-1.427-7.111
			c-0.011,0.364-0.016,0.779-0.046,1.229c0-0.962,0-1.337,0.046-1.229c0.121-3.336,0.202-2.977,1.69-4.936
			c0.106-0.193,4.277-1.068,4.956,2.258c-0.041,2.5,2.85,5.35,3.396,7.719c0.146,0.223,0.223,0.451,0.005,0.102
			c0.025,0.031,0.025,0.086,0.03,0.143c0.096,0.166,0.278,0.293,0.628,0.298c0.521,0.015,2.526,0.846,1.792,0.896
			c0.065,0.107,0.764,0.471,1.063,1.054c0.385,0.77,1.418,0.956,1.646,1.802c1.356,5.007,8.53,5.837,14.017,8.227
			c0.31,0.131,0.629,0.253,0.938,0.385c0.02-0.046,0.02-0.086,0.055-0.132c0.892-2.278-2.125-4.683,0.957-6.712
			c-2.313-0.871-4.49-2.137-6.438-4.086c-3.129-3.33-4.217-7.036-3.771-10.914c0.025-1.468,0.03-2.87,0.567-4.115
			c1.027-2.395,2.207-5.594,5.031-7.71c2.916-2.101,6.15-2.196,7.785-0.496c2.426,2.121,6.409,1.524,4.177,0.132
			c1.736,1.17,2.941,1.473,3.943,2c0.946,0.521,1.862,1.468,1.235,3.305c-0.01,0.152-0.648,1.094-1.701,1.828
			c-0.329,0.339-0.344,0.131-0.8,0.693c0.577,0,1.169,0.242,1.534,0.926c-0.183-0.273-0.092-0.536,0.238-0.48l0.05,0.517
			c-0.582,0.071-1.067,0.258-1.438-0.517c0,0-0.253,0.182-0.38,0.273c-0.116-0.137-0.101-0.375-0.101-0.603
			c-0.213,0.273-0.512,0.694-0.932,1.352c-0.4,0.694-0.299,0.679-0.38,0.622c-0.051,0.016-0.111,0-0.253-0.004
			c-0.208-0.021-0.612-0.057-1.018-0.102c-0.825-0.102-1.843-0.207-2.571-0.603c-2.232-1.104-3.285-1.104-3.903-0.628
			c-0.698,0.506-1.194,1.762-1.711,3.468c-0.542,1.716-0.395,3.933,0.607,5.614c0.896,1.392,2.283,2.404,3.893,3.057
			c0.243-0.096,0.521-0.187,0.846-0.293c0.258-0.086,4.839-1.199,6.723,0.359c0.03,0.207,0.061,0.445,0.116,0.688
			c0.228-0.046,0.455-0.122,0.679-0.218c0.283-0.127,0.622-0.197,0.876-0.375l0.121,0.031l-0.092-0.051l0.188-0.106
			c0.445,0.237,0.639-0.062,0.77-0.35l0.117-0.258c0.273-0.304,0.657-0.547,0.86-0.927l0.03,0.132l0.035-0.228l0.314-0.451
			c0.111-0.07,0.277-0.105,0.471-0.146c0.151-0.096-0.046-0.242-0.193-0.4c0.547-1.184,0.765-2.611,0.607-4.044
			c0.031,0.005,0.558-0.8,0.973-1.185l0.146,0.359l0.097-0.016c0.617,1.038,1.128,2.304,1.549,3.504l0.172,0.506
			c0,0.232-0.065,0.445-0.202,0.693l-0.811,1.088c-0.385,0.431,0.359,1.58,0.016,2.674c-0.005,0.202-0.805-0.375-0.825-0.021
			c-0.253,0.725-0.334,1.596-0.941,2.035c-0.132,0.385-1.245-0.131-1.347,0.229c-0.385,0.582-1.686,2.688-0.598,2.075
			c1.6-0.992,2.496-1.97,3.402-3.371c-0.557,1.452-1.767,2.759-3.433,3.584c-1.078,0.521-2.647,0.521-3.888,0.881
			c-0.07,0.03-0.131,0.05-0.192,0.091c-1.24,2.81-0.232,5.341-1.185,8.176c-0.096,0.268-0.177,0.547-0.263,0.824
			c6.014,0.305,11.369-1.007,16.812-3.021c0.886-0.369,1.771-0.699,2.606-1.119l1.28-0.617l0.157,0.005l-0.101-0.035l0.299-0.157
			c0.557,0.213,0.855-0.137,1.129-0.48c0.075-0.086,0.161-0.188,0.263-0.279c0.542-0.313,1.094-0.622,1.62-0.971l-0.041,0.151
			l0.178-0.233l0.688-0.439c0.156-0.036,0.359-0.051,0.612-0.011c0.232-0.04,0.146-0.263,0.096-0.491
			c1.524-1.094,2.967-2.313,4.237-3.797c-0.005,0,1.256-0.385,1.919-0.389l-0.229,0.41l0.097,0.039
			c-0.501,1.302-1.108,2.734-1.636,4.041l-0.212,0.541c-0.192,0.228-0.44,0.375-0.693,0.526c-0.456,0.188-0.927,0.37-1.442,0.562
			c-0.704,0.208-0.375,1.615-1.068,2.4c-0.046,0.188-0.739-0.582-0.851-0.223c-0.41,0.643-0.638,1.352-1.245,1.746
			c-0.127,0.344-1.291-0.223-1.428,0.121c-0.466,0.617-1.402,2.759-0.4,2.076c1.544-1.078,2.288-1.879,3.453-2.916
			c-0.841,1.148-1.822,2.191-3.422,3.139c-1.008,0.576-2.648,0.9-3.868,1.629c-0.501,0.426-1.022,0.871-1.585,1.327
			c1.762-0.507,3.514-1.18,5.26-2.097c0,0.011,1.149-0.283,1.569-0.309l-0.425,0.309l0.03,0.025
			c-1.226,0.922-2.632,1.838-3.897,2.572l-0.527,0.324c-0.298,0.121-0.571,0.207-0.865,0.273c-0.471,0.07-0.941,0.151-1.463,0.238
			c-0.714,0.05-1.382,0.85-2.45,1.163c-0.157,0.092-0.212-0.359-0.531-0.191c-0.749,0.313-1.407,0.597-2.151,0.724
			c-0.329,0.156-0.932-0.269-1.25-0.127c-0.775,0.243-2.779,0.992-1.575,0.871c1.838-0.238,3.002-0.532,4.612-0.916
			c-1.418,0.455-2.926,0.85-4.713,1.012c-1.094,0.106-2.506-0.01-3.838,0.071c-0.496,0.07-0.977,0.132-1.473,0.197
			c-1.154,0.167-2.374,0.294-3.67,0.309c-0.334,0.021-0.679,0.025-1.027,0.03c-0.057,1.828-0.106,3.604-0.431,5.482l-0.213,1.438
			l-0.096,0.729l-0.106,0.076l0.086-0.051l-0.025,0.172c-0.516,0.157-0.364,0.38-0.197,0.598l0.096,0.202l-0.07,0.567
			c0.38,0.024,0.765,0.035,1.148,0.065c8.561,0.466,16.058,3.953,21.155,9.831c0,0.131-0.005,0.263-0.005,0.263
			c0,1.159,0.476,2.156,1.275,2.805c-0.167,0-0.572,0-0.572,0v0.688c0,0.354,0.122,1.523,1.822,1.62l0.238,0.02
			c0,0,0.03-0.237,0.076-0.42h0.891c0.167,0.294,0.633,1.053,0.633,1.053l0,0l0.005,0.016c-0.015,0.081-0.024,0.167-0.024,0.167
			c0,0.814,0.471,1.377,0.733,1.655c0.116,0.324,0.39,1.159,0.39,1.159c0.127,0.375,0.314,0.658,0.502,0.896
			c-0.031,0.065-0.051,0.131-0.062,0.136l-0.269,0.704c0,0,1.221,0.658,1.52,0.82l-0.062,0.106l-0.005,0.223v0.061
			c3.407-2.845,6.591-6.131,9.405-9.912C105.039,65.637,103.496,52.419,97.821,41.864z M64.274,23.636l-0.314-0.415
			c0.198-0.065,0.415-0.157,0.415-0.005C64.295,23.397,64.284,23.524,64.274,23.636z M65.155,24.724
			c-0.183-0.126-0.238-0.263-0.238-0.41l-0.258-0.177l-0.122-0.021l-0.04-0.075l0.162,0.096l0,0c0.151,0.03,0.263-0.065,0.364-0.187
			l0.213-0.345c-0.036,0.071-0.127,0.228-0.213,0.345c-0.066,0.131-0.106,0.258-0.106,0.363
			C65.043,24.41,65.15,24.542,65.155,24.724z M68.749,25.954c-0.269-0.232,0.765-0.855,0.456-1.113
			c-0.162-0.633-0.79-1.099-1.326-1.58c-0.34-0.162,0.576-0.557,0.395-0.652c-0.699-0.825-2.192-0.603-2.364-1.145
			c-0.177-0.42-0.425-0.749-0.638-1.129c0.202,0.233,0.39,0.481,0.673,0.653c1.099,0.532,2.183,1.255,3.048,2.258
			c0.734,1.337,1.215,2.39,1.412,3.974C70.48,28.253,69.139,26.491,68.749,25.954z M87.014,45.757
			c-0.051,0.162-0.051,0.314-0.238,0.421c-0.167,0.05-0.318,0.122-0.445,0.208L87.014,45.757z M85.095,47.504l0.339-0.359
			l0.086-0.126l0.137-0.107l-0.223,0.233l-0.005,0.005c-0.091,0.132-0.01,0.178,0.111,0.152l0.208-0.041
			c0.056-0.025,0.102-0.03,0.121-0.03l-0.121,0.03c-0.076,0.016-0.137,0.035-0.208,0.041C85.408,47.342,85.257,47.413,85.095,47.504
			c-0.177,0.188-0.41,0.345-0.663,0.491C84.67,47.767,84.897,47.62,85.095,47.504z M81.662,79.815
			c-0.202-0.045-0.202-0.151-0.202-0.202c0,0,0.097-0.097,0.157-0.157c0.03,0.016,0.07,0.021,0.106,0.025
			C81.698,79.613,81.662,79.815,81.662,79.815z M82.28,80.489c0.051-0.289,0.106-0.583,0.106-0.583
			c0.156,0.036,0.228,0.117,0.228,0.243C82.614,80.149,82.452,80.327,82.28,80.489z M88.213,46.491
			c-0.855,1.078-1.701,2.091-2.708,3.018c-1.306,1.058-2.318,1.741-3.959,2.643c-1.113,0.557,0.537-0.887,1.165-1.383
			c0.253-0.242,0.956-0.105,1.209-0.374c0.664-0.375,1.119-0.972,1.706-1.539c0.213-0.269,0.456,0.101,0.552-0.03
			c0.83-0.805,1.078-1.771,1.641-2.177c0.45-0.319,0.82-0.618,1.185-0.937L88.213,46.491z M91.331,31.78
			c0.147,0.193,0.345,0.355,0.147,0.477c-0.233,0.041-0.396,0.111-0.532,0.202C91.083,32.236,91.194,32.014,91.331,31.78z
			 M90.896,33.527c-0.198,0.05-0.35,0.106-0.491,0.208c-0.062,0.217-0.162,0.435-0.345,0.607c0.021-0.284,0.157-0.477,0.345-0.607
			c0.045-0.137,0.061-0.279,0.086-0.416l-0.036-0.137l0.082-0.126l-0.046,0.263v0.006C90.526,33.507,90.698,33.538,90.896,33.527
			l0.364-0.046c0.05-0.01,0.086-0.016,0.121-0.016l-0.121,0.016C91.149,33.507,91.022,33.522,90.896,33.527z M94.611,32.661
			c-0.121,1.251-0.232,2.496-0.562,3.752c-0.698,1.377-1.18,2.439-2.272,3.816c-0.046,0.07-0.092,0.117-0.143,0.142
			c-0.324,0.765-0.784,1.479-1.463,2.04c0.283-0.278,0.365-0.172,0.152,0.223l-0.365,0.168c0.284-0.74,0.628-1.402,1.226-1.919
			c0,0,0.056-0.335,0.086-0.512c0.025-0.024,0.051-0.05,0.071-0.061c-0.188-0.405-0.021-1.665,0.096-2.182
			c0-0.35,1.356-0.126,1.342-0.517c0.436-0.557,0.404-1.316,0.521-2.07c-0.051-0.375,0.906,0.132,0.886-0.051
			c0.304-1.008-0.618-2.197-0.097-2.657c0.354-0.364,0.714-0.704,1.018-1.048C94.931,32.074,94.729,32.338,94.611,32.661z
			 M89.889,37.046c0.021,0.177,0.021,0.536,0.021,0.536c-1.079,0.097-1.327,0.729-1.575,1.433l0.644,0.092
			c0.243-0.345,0.035-0.543-0.405-0.426c1.104-0.197,1.722-0.75,2.156-1.422C90.45,37.146,90.172,36.96,89.889,37.046z
			 M86.411,10.935c2.804,2.43,6.19,6.89,7.451,10.271c0.765,0.77,1.154,0.005,0.345-3.6c-0.739-3.254-2.476-6.895-3.59-8.949
			C87.201,4.354,78.564,3.585,86.411,10.935z M82.417,50.035c-0.122,0.126-0.375,0.364-0.375,0.364
			c-0.81,0.061-1.438,0.531-2.116,0.941l0.41,0.061c0.4-0.202,0.391-0.339-0.015-0.268c0.967-0.117,1.751-0.506,2.511-0.963
			C82.716,50.085,82.665,49.964,82.417,50.035z"/>
	</g>
	<g>
		<g>
			<g>
				<path fill="#B42024" d="M114.733,87.08h4.45c0.597,0,1.18,0.091,1.716,0.268c0.542,0.173,1.027,0.421,1.448,0.755
					c0.43,0.334,0.759,0.749,1.002,1.245c0.248,0.501,0.379,1.068,0.379,1.696v3.907c0,0.633-0.131,1.185-0.379,1.681
					c-0.243,0.486-0.577,0.896-1.002,1.235c-0.441,0.334-0.922,0.587-1.459,0.754c-0.536,0.178-1.108,0.264-1.705,0.264h-4.45V87.08
					z M116.283,88.563v8.843h2.9c0.369,0,0.738-0.045,1.088-0.151c0.365-0.102,0.688-0.253,0.967-0.461
					c0.278-0.213,0.512-0.466,0.679-0.77c0.172-0.309,0.263-0.673,0.263-1.073v-3.907c0-0.4-0.091-0.77-0.263-1.068
					c-0.167-0.309-0.4-0.567-0.663-0.774c-0.273-0.229-0.593-0.375-0.947-0.481c-0.359-0.101-0.738-0.156-1.123-0.156H116.283z"/>
				<path fill="#B42024" d="M132.679,87.08h1.615v1.493h-1.615V87.08z M132.709,89.895h1.549v8.99h-1.549V89.895z"/>
				<path fill="#B42024" d="M143.426,92.855c0-0.466,0.102-0.906,0.294-1.291c0.192-0.374,0.46-0.698,0.784-0.967
					c0.314-0.263,0.693-0.46,1.124-0.607c0.45-0.142,0.886-0.202,1.347-0.202c0.45,0,0.865,0.061,1.266,0.188
					c0.415,0.132,0.774,0.309,1.108,0.572c0.324,0.253,0.587,0.562,0.795,0.931c0.228,0.354,0.349,0.774,0.405,1.221l-1.555,0.131
					c-0.086-0.552-0.324-0.951-0.709-1.24c-0.39-0.268-0.824-0.399-1.311-0.399c-0.531,0-1.002,0.137-1.412,0.43
					c-0.41,0.279-0.633,0.688-0.633,1.226c0,0.192,0.056,0.344,0.192,0.466c0.111,0.101,0.278,0.192,0.471,0.232
					c0.197,0.056,0.415,0.092,0.679,0.106c0.252,0.016,0.516,0.03,0.784,0.061c0.405,0.011,0.83,0.046,1.24,0.081
					c0.415,0.046,0.795,0.147,1.134,0.294c0.344,0.157,0.617,0.39,0.835,0.688s0.324,0.714,0.324,1.245
					c0,0.476-0.106,0.891-0.299,1.261c-0.207,0.369-0.466,0.684-0.8,0.937c-0.329,0.263-0.709,0.455-1.139,0.582
					c-0.44,0.121-0.891,0.192-1.361,0.192c-0.871,0-1.641-0.248-2.319-0.749c-0.668-0.502-1.067-1.215-1.204-2.116l1.508-0.127
					c0.076,0.512,0.324,0.901,0.709,1.185c0.395,0.264,0.83,0.4,1.291,0.4c0.521,0,0.997-0.137,1.433-0.39
					c0.405-0.254,0.628-0.658,0.628-1.17c0-0.213-0.061-0.369-0.178-0.491c-0.116-0.116-0.278-0.202-0.48-0.263
					c-0.208-0.061-0.431-0.097-0.693-0.111c-0.254-0.021-0.512-0.035-0.785-0.056c-0.415-0.021-0.82-0.036-1.245-0.081
					c-0.42-0.03-0.79-0.116-1.118-0.248c-0.33-0.142-0.593-0.359-0.806-0.668C143.527,93.808,143.426,93.393,143.426,92.855z"/>
				<path fill="#B42024" d="M159.377,92.846c0-0.501,0.096-0.941,0.309-1.326c0.203-0.385,0.476-0.709,0.825-0.962
					c0.329-0.253,0.733-0.45,1.149-0.577c0.425-0.132,0.855-0.192,1.285-0.192c0.405,0,0.815,0.061,1.221,0.188
					c0.39,0.132,0.764,0.309,1.098,0.566c0.34,0.243,0.618,0.547,0.851,0.901c0.228,0.359,0.375,0.774,0.426,1.256l-1.55,0.131
					c-0.08-0.552-0.328-0.951-0.733-1.24c-0.42-0.268-0.851-0.399-1.312-0.399c-0.258,0-0.516,0.03-0.744,0.096
					c-0.237,0.066-0.461,0.178-0.663,0.304c-0.192,0.142-0.344,0.314-0.471,0.517c-0.116,0.213-0.172,0.45-0.172,0.724v3.139
					c0,0.273,0.056,0.501,0.172,0.704c0.127,0.197,0.278,0.354,0.471,0.511c0.202,0.132,0.426,0.229,0.669,0.304
					c0.253,0.066,0.506,0.097,0.764,0.097c0.466,0,0.896-0.137,1.291-0.396c0.405-0.268,0.648-0.673,0.729-1.215l1.55,0.122
					c-0.071,0.471-0.223,0.876-0.436,1.245c-0.228,0.354-0.501,0.653-0.841,0.911c-0.334,0.248-0.708,0.44-1.098,0.552
					c-0.38,0.127-0.795,0.188-1.195,0.188c-0.45,0-0.886-0.071-1.311-0.192c-0.416-0.127-0.82-0.319-1.149-0.567
					c-0.35-0.248-0.622-0.557-0.825-0.937c-0.213-0.385-0.309-0.825-0.309-1.311V92.846z"/>
				<path fill="#B42024" d="M175.333,92.846c0-0.501,0.106-0.941,0.304-1.326c0.202-0.385,0.48-0.709,0.82-0.962
					c0.328-0.253,0.719-0.45,1.153-0.577c0.415-0.132,0.841-0.192,1.276-0.192c0.45,0,0.896,0.061,1.331,0.192
					c0.415,0.127,0.8,0.324,1.144,0.577c0.334,0.253,0.607,0.577,0.82,0.946c0.208,0.385,0.304,0.815,0.304,1.312v3.139
					c0,0.501-0.106,0.937-0.334,1.306c-0.202,0.38-0.476,0.704-0.8,0.957c-0.339,0.263-0.719,0.455-1.134,0.582
					c-0.436,0.121-0.871,0.192-1.321,0.192c-0.43,0-0.871-0.071-1.286-0.192c-0.435-0.127-0.825-0.319-1.153-0.567
					c-0.34-0.248-0.618-0.557-0.82-0.937c-0.197-0.385-0.304-0.825-0.304-1.311V92.846z M176.842,95.969
					c0,0.273,0.061,0.501,0.172,0.704c0.121,0.197,0.278,0.354,0.476,0.511c0.202,0.132,0.415,0.229,0.663,0.304
					c0.243,0.066,0.491,0.097,0.744,0.097s0.501-0.03,0.744-0.097c0.238-0.075,0.455-0.172,0.648-0.304
					c0.197-0.156,0.349-0.318,0.48-0.526c0.111-0.202,0.167-0.445,0.167-0.719v-3.134c0-0.268-0.056-0.511-0.167-0.703
					c-0.132-0.202-0.283-0.37-0.48-0.512c-0.193-0.126-0.421-0.237-0.658-0.304c-0.248-0.065-0.502-0.096-0.75-0.096
					c-0.268,0-0.511,0.03-0.744,0.096c-0.232,0.066-0.445,0.178-0.647,0.304c-0.197,0.142-0.354,0.314-0.476,0.517
					c-0.111,0.213-0.172,0.45-0.172,0.724V95.969z"/>
				<path fill="#B42024" d="M190.747,89.854h1.614l2.253,5.994c0.041,0.086,0.097,0.126,0.218,0.126c0.076,0,0.142-0.04,0.178-0.126
					l2.53-5.958l1.655-0.011l-3.807,9.006h-1.28L190.747,89.854z"/>
				<path fill="#B42024" d="M210.859,98.991c-0.466,0-0.917-0.071-1.337-0.203c-0.436-0.136-0.825-0.334-1.154-0.592
					s-0.597-0.572-0.784-0.941c-0.208-0.364-0.294-0.79-0.294-1.271v-3.139c0-0.491,0.086-0.911,0.294-1.281
					c0.188-0.379,0.45-0.708,0.779-0.972c0.318-0.263,0.709-0.461,1.145-0.607c0.43-0.137,0.886-0.197,1.352-0.197
					c0.471,0,0.931,0.061,1.346,0.197c0.436,0.146,0.805,0.345,1.149,0.603c0.334,0.248,0.598,0.572,0.79,0.946
					c0.197,0.37,0.293,0.811,0.293,1.281v0.617c0,0.481-0.151,0.851-0.471,1.108c-0.313,0.259-0.729,0.391-1.205,0.391h-3.969v1.042
					c0,0.532,0.219,0.927,0.639,1.21c0.43,0.264,0.9,0.4,1.417,0.4c0.471,0,0.911-0.137,1.316-0.4
					c0.41-0.283,0.638-0.678,0.719-1.21l1.554,0.122c-0.056,0.44-0.182,0.855-0.41,1.21c-0.228,0.364-0.496,0.663-0.819,0.911
					c-0.294,0.263-0.674,0.455-1.073,0.577C211.729,98.92,211.294,98.991,210.859,98.991z M208.753,93.22
					c0,0.233,0.122,0.345,0.37,0.345h3.467c0.218,0,0.334-0.106,0.334-0.313v-0.44c0-0.532-0.202-0.932-0.643-1.205
					c-0.425-0.283-0.911-0.415-1.433-0.415c-0.542,0-1.018,0.132-1.452,0.415c-0.416,0.273-0.644,0.684-0.644,1.235V93.22z"/>
				<path fill="#B42024" d="M227.083,90.33c0.42,0,0.825,0.056,1.22,0.182c0.41,0.116,0.765,0.289,1.104,0.532
					c0.319,0.253,0.588,0.541,0.815,0.905c0.223,0.345,0.359,0.75,0.415,1.221l-1.544,0.111c-0.086-0.537-0.329-0.937-0.724-1.18
					c-0.385-0.248-0.82-0.38-1.286-0.38c-0.223,0-0.471,0.041-0.733,0.102c-0.248,0.056-0.461,0.142-0.658,0.278
					c-0.192,0.126-0.37,0.294-0.466,0.491c-0.127,0.197-0.188,0.43-0.188,0.714v5.578h-1.554V89.89h1.554v0.622
					c0,0.081,0.035,0.142,0.101,0.192c0.092,0.03,0.173,0.035,0.248,0.005C225.908,90.451,226.476,90.33,227.083,90.33z"/>
				<path fill="#B42024" d="M238.361,89.89h1.631l2.222,5.912c0.056,0.122,0.137,0.172,0.259,0.172c0.111,0,0.207-0.05,0.258-0.172
					l2.46-5.912h1.63c-1.008,2.384-1.787,4.267-2.374,5.669c-0.577,1.397-1.022,2.44-1.331,3.149
					c-0.365,0.81-0.598,1.361-0.725,1.645c-0.212,0.537-0.546,0.972-0.986,1.291c-0.431,0.309-1.109,0.471-2.03,0.471h-0.876v-1.392
					h0.876c0.536,0,0.927-0.092,1.134-0.243c0.213-0.172,0.375-0.38,0.477-0.644l0.328-0.764c0.081-0.157,0.117-0.278,0.132-0.375
					c0.016-0.101,0.025-0.182,0.025-0.273c0-0.091-0.01-0.162-0.025-0.253c-0.015-0.086-0.046-0.207-0.101-0.354L238.361,89.89z"/>
				<path fill="#B42024" d="M270.658,87.125c0.269,0.016,0.496,0.086,0.684,0.208c0.202,0.116,0.344,0.258,0.45,0.42
					c0.111,0.157,0.197,0.345,0.238,0.542c0.035,0.192,0.061,0.374,0.061,0.526v10.063h-1.504v-8.019
					c0.021,0.041,0.021,0.086,0,0.127c-0.02,0.04-0.035,0.091-0.045,0.142c0,0.051-0.036,0.101-0.076,0.167l-3.356,7.583h-1.271
					l-3.275-7.588c-0.04-0.066-0.05-0.111-0.05-0.162c0-0.035-0.006-0.091-0.021-0.116c-0.025-0.051-0.046-0.092-0.046-0.122v7.988
					h-1.504V88.812c0-0.157,0.025-0.335,0.062-0.542c0.046-0.213,0.126-0.385,0.237-0.563c0.111-0.182,0.254-0.313,0.451-0.439
					c0.188-0.117,0.41-0.188,0.688-0.188l3.802,8.722c0.055,0.102,0.101,0.167,0.162,0.197c0.05,0.025,0.101,0.041,0.141,0.041
					c0.062,0,0.102-0.016,0.157-0.041c0.056-0.03,0.102-0.096,0.142-0.197L270.658,87.125z"/>
				<path fill="#B42024" d="M288.548,98.885h-1.296l-0.056-0.202c-0.03-0.092-0.086-0.143-0.151-0.157
					c-0.066-0.021-0.188,0-0.365,0.065c-0.263,0.117-0.557,0.203-0.851,0.278c-0.283,0.076-0.597,0.122-0.896,0.122
					c-0.456,0-0.886-0.071-1.316-0.192c-0.43-0.127-0.805-0.319-1.154-0.582c-0.324-0.253-0.598-0.577-0.8-0.957
					c-0.218-0.364-0.323-0.805-0.323-1.306V89.89h1.518v6.064c0,0.288,0.046,0.516,0.173,0.719c0.132,0.197,0.288,0.354,0.491,0.511
					c0.197,0.132,0.415,0.229,0.673,0.304c0.243,0.066,0.491,0.097,0.734,0.097s0.491-0.03,0.733-0.097
					c0.243-0.075,0.471-0.172,0.674-0.299c0.188-0.137,0.354-0.293,0.476-0.49c0.116-0.192,0.188-0.436,0.188-0.704V89.89h1.549
					V98.885z"/>
				<path fill="#B42024" d="M297.705,92.855c0-0.466,0.097-0.906,0.289-1.291c0.207-0.374,0.455-0.698,0.784-0.967
					c0.309-0.263,0.693-0.46,1.134-0.607c0.436-0.142,0.881-0.202,1.337-0.202c0.445,0,0.87,0.061,1.28,0.188
					c0.405,0.132,0.77,0.309,1.099,0.572c0.324,0.253,0.582,0.562,0.81,0.931c0.203,0.354,0.345,0.774,0.385,1.221l-1.539,0.131
					c-0.096-0.552-0.328-0.951-0.713-1.24c-0.391-0.268-0.841-0.399-1.321-0.399c-0.532,0-1.008,0.137-1.413,0.43
					c-0.425,0.279-0.622,0.688-0.622,1.226c0,0.192,0.061,0.344,0.183,0.466c0.121,0.101,0.273,0.192,0.471,0.232
					c0.191,0.056,0.42,0.092,0.668,0.106c0.258,0.016,0.526,0.03,0.8,0.061c0.41,0.011,0.819,0.046,1.235,0.081
					c0.425,0.046,0.805,0.147,1.139,0.294c0.344,0.157,0.628,0.39,0.82,0.688c0.223,0.299,0.339,0.714,0.339,1.245
					c0,0.476-0.111,0.891-0.304,1.261c-0.202,0.369-0.45,0.684-0.79,0.937c-0.334,0.263-0.719,0.455-1.148,0.582
					c-0.431,0.121-0.896,0.192-1.362,0.192c-0.875,0-1.65-0.248-2.303-0.749c-0.679-0.502-1.089-1.215-1.221-2.116l1.514-0.127
					c0.076,0.512,0.319,0.901,0.704,1.185c0.39,0.264,0.825,0.4,1.296,0.4c0.531,0,1.002-0.137,1.417-0.39
					c0.431-0.254,0.638-0.658,0.638-1.17c0-0.213-0.055-0.369-0.177-0.491c-0.122-0.116-0.283-0.202-0.481-0.263
					c-0.212-0.061-0.435-0.097-0.688-0.111c-0.264-0.021-0.521-0.035-0.795-0.056c-0.405-0.021-0.82-0.036-1.23-0.081
					c-0.42-0.03-0.789-0.116-1.123-0.248c-0.335-0.142-0.598-0.359-0.801-0.668C297.812,93.808,297.705,93.393,297.705,92.855z"/>
				<path fill="#B42024" d="M317.225,98.991c-0.461,0-0.921-0.071-1.331-0.203c-0.436-0.136-0.82-0.334-1.154-0.592
					c-0.323-0.258-0.592-0.572-0.79-0.941c-0.197-0.364-0.293-0.79-0.293-1.271v-3.139c0-0.491,0.096-0.911,0.293-1.281
					c0.198-0.379,0.461-0.708,0.78-0.972c0.329-0.263,0.708-0.461,1.144-0.607c0.431-0.137,0.891-0.197,1.352-0.197
					c0.477,0,0.927,0.061,1.352,0.197c0.431,0.146,0.815,0.345,1.14,0.603c0.339,0.248,0.592,0.572,0.81,0.946
					c0.197,0.37,0.289,0.811,0.289,1.281v0.617c0,0.481-0.162,0.851-0.477,1.108c-0.318,0.259-0.724,0.391-1.215,0.391h-3.959v1.042
					c0,0.532,0.224,0.927,0.644,1.21c0.425,0.264,0.901,0.4,1.412,0.4c0.481,0,0.911-0.137,1.316-0.4
					c0.395-0.283,0.638-0.678,0.739-1.21l1.539,0.122c-0.062,0.44-0.188,0.855-0.416,1.21c-0.212,0.364-0.49,0.663-0.799,0.911
					c-0.319,0.263-0.694,0.455-1.094,0.577C318.096,98.92,317.665,98.991,317.225,98.991z M315.124,93.22
					c0,0.233,0.127,0.345,0.37,0.345h3.467c0.223,0,0.329-0.106,0.329-0.313v-0.44c0-0.532-0.202-0.932-0.633-1.205
					c-0.43-0.283-0.916-0.415-1.438-0.415c-0.542,0-1.018,0.132-1.442,0.415c-0.431,0.273-0.653,0.684-0.653,1.235V93.22z"/>
				<path fill="#B42024" d="M336.906,98.885h-1.291l-0.05-0.202c-0.03-0.092-0.081-0.143-0.152-0.157
					c-0.075-0.021-0.192,0-0.364,0.065c-0.269,0.117-0.563,0.203-0.851,0.278c-0.288,0.076-0.587,0.122-0.901,0.122
					c-0.445,0-0.886-0.071-1.311-0.192c-0.436-0.127-0.82-0.319-1.154-0.582c-0.329-0.253-0.598-0.577-0.805-0.957
					c-0.213-0.364-0.314-0.805-0.314-1.306V89.89h1.499v6.064c0,0.288,0.075,0.516,0.197,0.719c0.121,0.197,0.278,0.354,0.476,0.511
					c0.192,0.132,0.426,0.229,0.668,0.304c0.254,0.066,0.502,0.097,0.744,0.097c0.233,0,0.486-0.03,0.734-0.097
					c0.248-0.075,0.466-0.172,0.674-0.299c0.212-0.137,0.359-0.293,0.476-0.49c0.121-0.192,0.177-0.436,0.177-0.704V89.89h1.549
					V98.885z"/>
				<path fill="#B42024" d="M346.327,89.89h1.28l0.057,0.197c0.03,0.146,0.172,0.167,0.404,0.04
					c0.491-0.232,0.973-0.339,1.469-0.339c0.986,0,1.822,0.339,2.495,1.002c0.288-0.329,0.644-0.577,1.078-0.749
					c0.425-0.177,0.866-0.253,1.331-0.253c0.396,0,0.785,0.061,1.17,0.192c0.385,0.127,0.724,0.324,1.022,0.577
					s0.542,0.577,0.729,0.946c0.191,0.38,0.293,0.815,0.293,1.312v6.069h-1.509v-6.074c0-0.547-0.182-0.957-0.536-1.23
					c-0.344-0.258-0.744-0.39-1.18-0.39c-0.4,0-0.784,0.132-1.139,0.415c-0.35,0.273-0.531,0.684-0.531,1.225v6.055h-1.539v-6.074
					c0-0.547-0.183-0.957-0.527-1.23c-0.359-0.258-0.744-0.39-1.158-0.39c-0.421,0-0.806,0.121-1.149,0.385
					c-0.35,0.258-0.517,0.643-0.517,1.18v6.13h-1.544V89.89z"/>
			</g>
			<g>
				<path fill="#B42024" d="M185.25,40.655c-1.696-15.916-4.566-23.747-9.806-25.154l-0.785-0.192l-1.493,0.061l-1.189,0.511
					l-0.699,0.254c-9.091,4.885-15.221,10.919-21.038,25.721c-6.308-37.496-12.301-36.625-16.654-36.625h-0.754l-0.633,0.354
					c-4.642,2.521-6.449,5.979-11.31,19.222c0,0-4.277,8.078-5.705,36.32c0.025,0.426,0.031,0.835,0.031,1.226
					c0,8.585,0.749,16.513,6.267,16.513c1.458,0,6.212-0.481,6.212-6.713v-6.99c0-17.242,1.619-30.768,5.27-41.039
					c1.382-3.012,6.672,12.23,8.59,29.594c0.674,6.261,2.167,13.444,7.816,13.444c2.981,0,5.947-1.635,12.595-23.843
					c6.114-16.396,10.423-16.912,10.256-15.247c0.617,1.66,1.498,5.255,2.045,12.913c-0.005,6.46-1.154,13.41-3.422,20.654
					l-0.396,1.275c0,0-0.04,0.081-0.091,0.264c-0.405,1.382-1.994,7.623,2.283,8.545c0,0,4.931,1.438,7.689-6.404l0.005-0.01
					l0.066-0.197c0.015-0.056,0.045-0.106,0.055-0.167h-0.005l0.167-0.471c3.073-9.279,4.643-17.196,4.643-23.565v-0.126
					L185.25,40.655z"/>
				<path fill="#B42024" d="M245.727,71.569c-6.586-14.883-9.937-27.042-9.972-36.148l2.253-16.619l0.101-0.734l-0.349-0.658
					c-1.393-2.693-3.175-4.07-5.306-4.07c-4.485,0-6.075,5.342-6.601,7.098l-0.041,0.172l-0.021,0.188
					c-1.589,11.502-3.103,19.844-4.515,24.805c-4.622,11.86-8.268,17.287-10.752,19.747c-0.011-0.056-0.025-0.081-0.025-0.081
					c-5.721,4.395-7.68-3.351-7.68-3.351l-0.056,0.015c-0.739-3.832-1.448-13.754-1.468-39.1l0.182-3.867
					c-0.162-4.096-2.729-4.035-4.602-3.447c-4.718,0.83-5.856,8.125-6.343,15.971v0.07v16.857c0,19.079,5.518,28.758,16.387,28.758
					c7.147,0,13.778-5.599,20.142-17.054c2.223,6.1,6.257,11.603,12.059,16.401l0.774,0.652h0.142
					c0.891,0.405,3.559,1.332,5.735-0.962C245.772,76.211,247.175,73.579,245.727,71.569z"/>
				<path fill="#B42024" d="M290.507,37.526h-0.638c-3.64,0-6.12-0.9-7.553-2.754c5.279-5.427,8.145-10.388,8.504-14.762v-0.137
					l-0.015-0.126c0.035-0.622-0.051-2.587-1.919-4.202c-0.461-0.445-0.941-0.779-1.438-1.002l-0.045-0.02
					c-0.78-0.35-1.585-0.481-2.334-0.481h-0.097l-0.035,0.011c0,0-1.595,0.126-2.8,1.032c-0.02,0.025-0.04,0.03-0.065,0.04
					l-0.046,0.035l-0.051,0.041c-4.211,3.762-6.332,8.267-6.332,13.425v1.165c0,1.574,0.404,3.336,1.185,5.188
					c-0.253,0.254-1.185,1.186-1.185,1.186c-1.154,0.936-0.258,1.838-0.258,1.838c1.093,0.576,2.176-0.122,2.176-0.122
					s0.517-0.223,0.78-0.354c2.581,2.49,5.907,3.766,9.917,3.766c2.47,0,3.113-0.936,3.244-1.665l0,0
					C292.03,38.093,290.507,37.526,290.507,37.526z M280.762,29.792c0,0,0-0.381,0-0.431c1.195-8.57,3.104-10.823,4.415-11.289
					c0.44-0.071,1.159-0.005,1.199,1.413c-0.081,1.7-0.724,3.801-1.908,6.256c-1.342,2.415-2.562,4.217-3.62,5.387
					C280.793,30.723,280.762,30.282,280.762,29.792z"/>
				<path fill="#B42024" d="M320.89,38.159l-0.146-0.253c-3.169-5.776-4.799-10.469-4.829-13.992
					c0.02-0.075,0.937-6.019,0.937-6.019l0,0c0.329-2.436-1.493-2.824-2.425-2.824c-1.357,0-2.385,0.951-3.088,2.824l0,0
					l-0.041,0.096l-0.01,0.097c-0.754,4.479-1.498,7.729-2.177,9.658c-1.61,3.321-2.987,5.382-4.096,6.616
					c-1.341,1.428-2.896,1.635-2.896,1.635c-0.865,0.025-1.493-0.516-1.822-0.87c-0.131-0.167-0.248-0.299-0.248-0.299
					c-0.156-0.304-0.557-1.251-0.846-3.994c-0.303-2.738-0.46-6.702-0.46-11.79c0.035-0.101-0.152-2.277-0.152-2.277
					c-0.126-1.544-1.721-0.836-2.04-0.674c-1.802,0.79-2.263,3.848-2.449,6.222l-0.006,0.056v6.611c0,3.676,0.607,6.394,1.857,8.316
					c1.332,2.066,3.367,3.113,6.015,3.113c3.482,0,6.702-2.313,9.871-7.006c1.063,2.557,3.083,4.85,6.019,6.794
					c0,0,0.172,0.116,0.258,0.177c0.051,0.046,0.917,0.648,2.471-0.207C320.586,40.169,321.381,39.638,320.89,38.159z"/>
				<path fill="#B42024" d="M358.284,26.693c0,0-0.106-4.91-2.288-7.79c-0.517-0.77-1.104-1.287-1.762-1.58
					c-0.127-0.081-0.643-0.375-1.564-0.243h-0.086c0,0-0.01,0-0.021,0.016c-1.048,0.161-2.551,0.845-4.535,2.845
					c-2.536,2.126-4.729,5.158-6.571,9.016c-2.875-13.84-5.325-15.754-7.35-15.754h-0.354l-0.233,0.107
					c-2.222,0.961-4.085,3.893-5.705,8.863c-1.493-3.979-2.829-6.444-4.1-7.482l-0.329-0.258c0,0-0.906-0.617-2.151,0.192
					c0,0-1.149,0.558-0.264,3.053l0.006-0.005l0.05,0.146c2.956,8.393,4.465,14.154,4.465,17.115c0,1.914,0,6.389,2.84,6.389
					c0.016,0,0.041,0,0.056,0c0.016,0,0.021,0,0.035,0c1.742,0,2.811-1.023,2.811-2.678v-2.648c0-6.575,0.9-11.824,2.667-15.692
					c1.2,3.179,2.288,8.12,3.199,14.771c0.178,1.291,0.699,5.184,3.56,5.184c0.029,0,0.055,0,0.08,0c0.011,0,0.016,0,0.016,0
					c1.099,0,2.207-0.587,4.338-7.188c1.068-2.789,2.436-5.432,2.436-5.432l0,0c1.614-2.783,3.204-4.642,4.764-5.553
					c0.283,0.552,0.683,1.842,0.951,4.789c-0.01,2.395-0.537,4.971-1.59,7.674l-0.258,0.678c0,0-0.749,1.165,1.762,2.031
					c0,0,1.736,0.738,2.769-1.018l0.152-0.385c1.473-3.544,2.212-6.582,2.212-9.031v-0.066L358.284,26.693z"/>
				<path fill="#B42024" d="M358.284,63.277c0,0-0.106-4.85-2.263-7.694c-0.496-0.739-1.084-1.255-1.736-1.544
					c-0.122-0.075-0.628-0.359-1.529-0.237h-0.086c0,0-0.01,0.004-0.035,0.02c-1.002,0.162-2.496,0.825-4.455,2.805
					c-2.5,2.096-4.657,5.087-6.469,8.869c-2.835-13.627-5.245-15.521-7.244-15.521h-0.35l-0.223,0.107
					c-2.191,0.946-4.034,3.832-5.629,8.736c-1.469-3.918-2.795-6.342-4.045-7.365l-0.318-0.253c0,0-0.881-0.612-2.111,0.177
					c0,0-1.139,0.557-0.269,3.018l0.011-0.01l0.051,0.151c2.92,8.267,4.403,13.937,4.403,16.857c0,1.883,0,6.297,2.784,6.297
					c0.021,0,0.041-0.005,0.041-0.005c0.051,0,0.056,0.005,0.065,0.005c1.701,0,2.754-1.013,2.754-2.652V72.44
					c0-6.479,0.896-11.648,2.627-15.45c1.194,3.129,2.263,7.988,3.154,14.533c0.177,1.266,0.693,5.113,3.493,5.113
					c0.045,0,0.07,0,0.101,0c0.011,0,0.011,0,0.011,0c1.088,0,2.171-0.572,4.271-7.067c1.049-2.769,2.405-5.365,2.405-5.365h-0.016
					c1.59-2.733,3.164-4.571,4.703-5.478c0.273,0.567,0.673,1.817,0.937,4.718c-0.006,2.359-0.531,4.916-1.569,7.563l-0.253,0.663
					c0,0-0.75,1.164,1.736,2.015c0,0,1.711,0.729,2.733-1.018l0.146-0.364c1.442-3.498,2.177-6.49,2.177-8.895v-0.071
					L358.284,63.277z"/>
				<path fill="#B42024" d="M274.207,37.283c-0.684-2.845-9.066-5.634-9.502-5.766c-3.037-1.144-5.153-2.212-6.308-3.174
					c-0.399-0.44-0.562-0.906-0.557-1.402c0-0.981,0.647-2.01,1.326-2.819c2.344-2.638,6.231-5.158,11.552-7.508l0.76-0.328
					c0,0,0-0.025,0-0.041c0.476-0.304,0.754-0.699,0.754-1.185c0-0.116-0.01-0.253-0.045-0.38c-0.092-0.309-0.173-0.445-0.254-0.516
					l0.01,0.01c-0.967-0.805-2.166-0.613-2.683-0.48H269.2l-0.283,0.115c-11.806,4.486-17.565,8.809-17.576,13.232
					c0,0.305,0.04,0.618,0.111,0.922c-0.01,0.006,0.071,0.254,0.071,0.254c0.232,0.754,0.719,1.538,1.433,2.293
					c0.628,0.703,1.397,1.326,2.277,1.857c-0.01-0.006,0.329,0.202,0.329,0.202l0.016,0.021l0.02,0.005c0,0,0.193,0.086,0.198,0.086
					c1.073,0.552,2.293,0.987,3.634,1.251c0.046,0.02,3.412,0.951,5.676,1.994c-0.006-0.01,0.01,0.016,0.01,0.016l0.025,0.004
					c0.415,0.193,0.77,0.385,1.068,0.568c0.511,0.313,0.794,0.602,0.789,0.805c0,0.01,0,0.029,0,0.035
					c-0.045,0.172-0.324,0.344-0.81,0.496c-0.106,0.02-0.83,0.146-1.873,0.228l-1.165,0.051l-0.744,0.005
					c-0.754-0.01-1.478-0.086-2.15-0.197c-0.887-0.243-1.494-0.699-1.858-1.393c-0.364-0.738-0.921-1.215-1.635-1.377
					c-1.271-0.283-2.566,0.502-2.622,0.531l-0.025,0.011l-0.01,0.005c-1.479,1.185-0.704,2.623-0.674,2.698v0.015l0.03,0.006
					c1.762,2.323,5.133,3.492,10.023,3.482h0.552c4.009-0.02,7.158-0.951,9.385-2.784c0.547-0.45,0.82-0.937,0.82-1.468
					C274.242,37.546,274.227,37.415,274.207,37.283z"/>
				<path fill="#B42024" d="M319.736,74.07c-0.041-0.674-0.405-1.863-1.813-4.546c0.212-0.309,1.139-1.63,1.139-1.63
					s0.916-1.059,0.076-1.772c0,0-0.887-0.501-1.706-0.035c0,0-0.537,0.278-0.952,0.486c-3.133-11.289-7.674-16.852-13.854-16.938
					h-0.097l-0.121,0.015c0,0-6.869,0.263-7.645,3.063c0,0-0.086,0.259,0.542,0.38c0,0,4.217-0.477,4.293-0.48
					c0.061,0,0.445,0.004,0.445,0.004c4.485,0.071,8.009,4.905,10.489,14.372c-3.954-1.488-6.92-2.237-9.047-2.283
					c-1.022-0.016-1.893,0.035-2.643,0.137c0-0.005,0-0.01,0-0.01s-5.785,0.663-8.747,3.857c-0.334,0.323-0.597,0.663-0.8,1.027
					c-0.01,0.021-0.02,0.051-0.03,0.065c0,0-2.43,3.301,3.088,6.181c2.223,1.479,4.764,2.248,7.629,2.299
					c3.69,0.056,8.149-1.61,13.293-4.921c0.273,0.173,1.073,0.901,1.205,0.992c0.517,0.496,0.972,1.104,1.523,1.499
					c0.015,0.005,0.046,0.03,0.097,0.061c0.105,0.07,0.217,0.132,0.323,0.182c0.036,0.036,0.062,0.046,0.106,0.056
					c1.149,0.628,2.304,0.041,2.304,0.041C320.136,75.746,319.766,74.161,319.736,74.07z M302.079,73.893
					c-0.011-0.005-0.016-0.01-0.016-0.01c-0.405,0.015-0.754,0.021-1.104,0.015h-0.106c-5.249-0.096-4.565-2.703-4.565-2.703
					c0.814-2.065,3.108-2.425,4.217-2.46c2.562,0.097,5.401,0.972,8.443,2.557C306.058,72.891,303.75,73.767,302.079,73.893z"/>
				<path fill="#B42024" d="M274.227,73.321c0-0.011,0.016-0.011,0.016-0.011c-0.278-2.824-6.667-5.087-6.667-5.087
					c-4.784-1.838-7.37-3.058-8.494-3.62c-0.536-0.354-1.722-1.387-0.684-3.503c0.228-0.395,0.491-0.749,0.77-1.083
					c2.344-2.633,6.231-5.169,11.552-7.502l0.76-0.339c0,0,0-0.025,0-0.046c0.476-0.294,0.754-0.698,0.754-1.175
					c0-0.127-0.01-0.242-0.045-0.385c-0.092-0.309-0.173-0.439-0.254-0.506h0.01c-0.967-0.795-2.166-0.607-2.683-0.471H269.2
					l-0.283,0.111c-11.806,4.48-17.565,8.798-17.576,13.223c0,0.309,0.04,0.617,0.111,0.931c-0.01,0,0.071,0.243,0.071,0.243
					c0.232,0.77,0.719,1.549,1.433,2.304c0.628,0.703,1.397,1.326,2.277,1.857c-0.01-0.005,0.329,0.202,0.329,0.202l0.016,0.011
					l0.02,0.005c0,0,0.193,0.091,0.198,0.091c1.073,0.563,2.293,0.992,3.634,1.261c0.046,0.01,3.412,0.946,5.676,1.984
					c-0.006,0,0.01,0.01,0.01,0.01l0.025,0.016c0.415,0.192,0.77,0.385,1.068,0.557c0.511,0.324,0.794,0.618,0.789,0.815
					c0,0.005,0,0.01,0,0.035c-0.045,0.167-0.324,0.339-0.81,0.491c-0.106,0.015-0.83,0.156-1.873,0.232l-1.165,0.056h-0.744
					c-0.754-0.01-1.478-0.086-2.15-0.202c-0.887-0.243-1.494-0.698-1.858-1.382c-0.364-0.749-0.921-1.22-1.635-1.377
					c-1.271-0.294-2.566,0.496-2.622,0.531l-0.025,0.01l-0.01,0.011c-1.479,1.164-0.704,2.622-0.674,2.678v0.025l0.03,0.005
					c1.762,2.318,5.133,3.498,10.023,3.482h0.552c4.009-0.01,7.158-0.956,9.385-2.773c0.547-0.451,0.82-0.947,0.82-1.474
					C274.242,73.493,274.242,73.396,274.227,73.321z"/>
				<g>
					<path fill="#B42024" d="M278.378,48.46c2.288,2.162,3.584,2.906,5.026,2.795c2.269-0.152,2.339-1.914,2.299-2.43l-0.011-0.232
						c-0.07-1.043-0.977-1.762-5.7-2.77c0,0-1.396-0.081-1.872,0.779C278.12,46.603,277.674,47.737,278.378,48.46z M280.55,47.858
						c2.177-0.121,2.936,0.911,3.199,1.063c0,0.143,0.075,0.34-0.476,0.37C282.787,49.331,281.477,49.169,280.55,47.858z"/>
					<path fill="#B42024" d="M283.85,54.257c-0.612-2.668-3.188-0.324-3.188-0.324c-0.278,0.243-0.471,0.835-0.471,0.835
						l-0.208,0.603c-0.759,2.228-1.458,7.7-2.121,16.767l-0.01,0.177l0.162,1.883c0.566,3.447,1.873,3.716,3.174,3.62l0.972-0.229
						c1.286-0.683,1.59-1.893,1.731-2.936c0,0.005,0.021-0.091,0.021-0.091v-0.056c0,0-0.005-0.081-0.025-0.224
						c0-0.318-0.016-0.693-0.076-1.098c0,0-0.283-1.296-0.349-3.994c0.04-4.49,0.197-7.938,0.496-10.251l0.035-0.259
						C284.336,54.936,283.85,54.257,283.85,54.257z"/>
				</g>
			</g>
		</g>
	</g>
</g>
</svg>
