<?xml version="1.0" encoding="utf-8"?>
<!-- Generator: Adobe Illustrator 16.0.0, SVG Export Plug-In . SVG Version: 6.00 Build 0)  -->
<!DOCTYPE svg PUBLIC "-//W3C//DTD SVG 1.1//EN" "http://www.w3.org/Graphics/SVG/1.1/DTD/svg11.dtd">
<svg version="1.1" id="Layer_1" xmlns="http://www.w3.org/2000/svg" xmlns:xlink="http://www.w3.org/1999/xlink" x="0px" y="0px"
	 width="94.667px" height="92.999px" viewBox="0 0 94.667 92.999" enable-background="new 0 0 94.667 92.999" xml:space="preserve">
<path fill="#B01117" d="M60.409,20.332c0.143,0.088,0.358,0.287,0.358,0.287c-0.617,0.552-0.356,0.997-0.118,1.54l0.498-0.217
	c-0.064-0.291-0.332-0.345-0.536-0.08c0.591-0.574,0.655-1.229,0.439-1.821C60.815,20.13,60.51,20.146,60.409,20.332 M76.143,35.908
	c0.194,0.058,0.383,0.065,0.473,0.096C76.477,35.958,76.302,35.933,76.143,35.908 M59.553,26.019l-0.379,0.01
	C59.325,26.048,59.47,26.021,59.553,26.019 M75.362,36.2c0.129-0.062,0.197-0.137,0.277-0.234l-0.043,0.025
	C75.491,36.063,75.451,36.146,75.362,36.2 M76.143,35.908c-0.178-0.048-0.293-0.118-0.277-0.288l-0.006-0.016l-0.221,0.361
	C75.791,35.907,75.965,35.905,76.143,35.908 M59.174,26.028c-0.173-0.01-0.3-0.055-0.34-0.189l0.002-0.016
	c-0.014,0.106-0.008,0.234-0.045,0.33C58.899,26.095,59.001,26.06,59.174,26.028 M70.383,39.162
	c-0.672-0.204-1.287-0.317-1.543,0.261C69.491,39.606,70.07,39.482,70.383,39.162 M51.208,54.485
	c-0.477,0.242-0.639,0.525-0.458,0.74C51.256,54.995,51.677,54.739,51.208,54.485 M58.678,26.37
	c0.043-0.075,0.097-0.135,0.113-0.217c-0.009,0.024-0.02,0.025-0.02,0.025C58.718,26.244,58.702,26.317,58.678,26.37 M50.752,58.224
	L50.752,58.224l-0.032-0.066C50.72,58.157,50.725,58.198,50.752,58.224 M76.982,78.619c0.013-0.104,0.052-0.187,0.048-0.265
	L77,78.093c-0.075-0.399-0.328-0.669-0.668-0.889l0.032-0.055c0,0-0.884-0.572-0.919-0.586c-0.225-0.14-0.445-0.27-0.594-0.416
	c0.038-0.189,0.098-0.443,0.095-0.727c0.003-0.604-0.286-1.076-0.761-1.325c-0.461-0.304-1.973-0.917-3.162-0.823
	c-0.463-0.786-1.04-1.75-1.968-2.412l-0.1-0.057l-0.103-0.062c-0.876-0.392-1.773-0.659-2.631-0.887
	c-1.021-0.295-1.992-0.563-2.755-0.97c-5.597-3.602-11.419-2.631-17.541-1.64l-4.041,0.613l-0.067,0.015l-0.055,0.006
	c-0.771,0.23-1.428,0.541-2.054,0.838c-0.525,0.251-1.04,0.494-1.534,0.6c-2.85,0.705-4.76,2.969-6.482,4.958l-0.027,0.058
	c-1.537,1.799-2.766,3.025-5.491,3.451c-3.21,0.64-4.704,3.411-4.909,5.111l-0.023,0.473c0.002,0.454,0.118,0.806,0.288,1.143
	c-0.766,1.1-1.157,2.08-1.405,2.826c-0.463,1.178-0.727,1.955-2.25,2.813c6.143,2.54,13.201,2.914,20.005,2.565
	c13.174,0.486,28.467-3.431,40.608-13.301c-0.445-0.378-1.006-0.616-1.442-0.77L76.982,78.619 M89.765,35.272
	c-0.315-4.753-1.771-8.938-4.151-12.514l-0.159,0.049c-0.046-0.166-0.089-0.317-0.1-0.448c-2.06-2.948-4.624-5.468-7.632-7.56
	C72.21,1.126,51.653,1.237,39.301,3.825c-7.529,0.439-14.935,3.037-21.02,8.753C9.54,18.41,2.488,27.753,1.035,44.938
	c-0.216,2.758-0.294,5.41-0.224,7.912C0.174,60.114,0.757,67.337,3,73.731c2.006,5.695,4.951,9.799,8.516,12.674
	c0.484-3.904,2.006-8.977,4.127-11.031l2.34-2.287c6.43-6.376,11.99-11.854,20.24-13.816c3.184-0.625,6.219-1,9.234-1.066
	c-0.31-0.283-0.684-0.547-0.714-0.823c-0.218-0.143,0.903-0.443,0.666-0.565c-0.308-0.326-1.723-1.151-1.628-0.634
	c0.184,0.776,0.482,1.276,0.703,1.961c-0.493-0.597-0.887-1.243-0.919-1.991c-0.021-0.483,0.447-1.148,0.256-1.732
	c-0.548-0.796-1.561-1.609-1.599-2.57c0.041-1.091-0.107-2.122-0.283-3.137c-1.175-0.285-2.372-0.639-3.539-1.087
	c-1.542-0.462-2.971-0.675-4.195-1.3c-2.412-1.273-5.294-1.919-7.911-3.167c-2.041-0.935-3.911-2.29-4.71-4.119
	c-2.911-2.755-5.187-6.232-7.17-9.478c-0.982-3.88-1.286-6.5-1.381-6.75c-0.006,0.353-0.027,0.743-0.043,1.168
	c0.006-0.912,0-1.271,0.043-1.168c0.111-3.176,0.178-2.836,1.604-4.686c0.098-0.203,4.047-1.03,4.702,2.127
	c-0.024,2.385,2.718,5.084,3.253,7.328c0.139,0.223,0.203,0.418,0.022,0.09l0.003,0.134c0.113,0.179,0.264,0.296,0.604,0.296
	c0.502,0.002,2.402,0.801,1.709,0.865c0.07,0.072,0.711,0.44,0.989,0.996c0.361,0.721,1.37,0.881,1.583,1.699
	c1.285,4.747,8.116,5.521,13.346,7.771c0.299,0.142,0.582,0.249,0.885,0.37c-0.003-0.031,0.029-0.084,0.045-0.121
	c0.848-2.176-2.029-4.438,0.888-6.379c-2.187-0.83-4.241-2.034-6.079-3.859c-3.012-3.162-4.052-6.684-3.637-10.369
	c0.012-1.398,0.014-2.736,0.51-3.917c0.984-2.279,2.092-5.314,4.79-7.333c2.774-2.008,5.837-2.084,7.403-0.486
	c2.288,2.009,6.072,1.443,3.951,0.119c1.68,1.094,2.793,1.381,3.766,1.894c0.898,0.461,1.771,1.39,1.168,3.147
	c-0.003,0.132-0.604,1.032-1.609,1.72c-0.299,0.326-0.337,0.147-0.76,0.675c0.549-0.018,1.113,0.199,1.452,0.877
	c-0.161-0.273-0.067-0.503,0.229-0.471l0.051,0.51c-0.547,0.061-1.019,0.248-1.358-0.516c0,0-0.253,0.186-0.361,0.273
	c-0.132-0.118-0.091-0.354-0.097-0.563c-0.216,0.244-0.485,0.658-0.885,1.287c-0.38,0.654-0.283,0.642-0.363,0.593
	c-0.052,0-0.095,0-0.225,0.003c-0.199-0.049-0.592-0.055-0.979-0.103c-0.792-0.11-1.781-0.208-2.444-0.581
	c-2.11-1.057-3.11-1.059-3.704-0.586c-0.677,0.486-1.143,1.68-1.645,3.297c-0.504,1.629-0.34,3.738,0.602,5.343
	c0.876,1.305,2.181,2.27,3.72,2.897c0.229-0.097,0.493-0.182,0.776-0.279c0.259-0.092,4.594-1.152,6.41,0.321
	c0.033,0.196,0.07,0.41,0.1,0.667c0.238-0.062,0.461-0.121,0.645-0.213c0.272-0.129,0.602-0.188,0.822-0.369l0.135,0.033
	l-0.097-0.041l0.178-0.104c0.437,0.218,0.609-0.057,0.73-0.346l0.095-0.23c0.285-0.298,0.636-0.536,0.846-0.896l0.035,0.127
	l0.014-0.198l0.305-0.444c0.113-0.063,0.272-0.107,0.45-0.148c0.138-0.078-0.046-0.234-0.194-0.369
	c0.534-1.133,0.726-2.482,0.586-3.839c0,0,0.525-0.774,0.924-1.135l0.13,0.352l0.089-0.03c0.58,0.982,1.063,2.201,1.467,3.336
	l0.17,0.463c0.008,0.255-0.065,0.447-0.179,0.678l-0.763,1.031c-0.389,0.416,0.358,1.49,0.016,2.541
	c0,0.188-0.781-0.367-0.783-0.024c-0.252,0.702-0.34,1.521-0.898,1.939c-0.143,0.372-1.178-0.125-1.285,0.219
	c-0.37,0.558-1.58,2.557-0.557,1.974c1.505-0.938,2.362-1.893,3.235-3.201c-0.547,1.357-1.685,2.618-3.253,3.408
	c-1.047,0.498-2.54,0.498-3.724,0.838c-0.051,0.033-0.107,0.055-0.169,0.082c-1.182,2.686-0.214,5.089-1.111,7.769
	c-0.075,0.273-0.176,0.53-0.25,0.8c5.717,0.268,10.807-0.99,15.998-2.895c0.82-0.363,1.661-0.672,2.445-1.077l1.221-0.593
	l0.162,0.002l-0.102-0.026l0.277-0.159c0.528,0.215,0.806-0.115,1.075-0.436c0.073-0.11,0.146-0.174,0.257-0.275
	c0.506-0.303,1.029-0.613,1.531-0.936l-0.061,0.137l0.187-0.213l0.649-0.436c0.168-0.02,0.334-0.031,0.577-0.001
	c0.231-0.03,0.151-0.249,0.127-0.462c1.421-1.031,2.806-2.211,3.997-3.625c0,0,1.187-0.349,1.799-0.373l-0.208,0.4l0.103,0.023
	c-0.482,1.257-1.041,2.621-1.545,3.858l-0.205,0.521c-0.18,0.207-0.42,0.346-0.66,0.483c-0.434,0.179-0.881,0.358-1.358,0.549
	c-0.685,0.204-0.356,1.539-1.021,2.288c-0.049,0.161-0.701-0.574-0.822-0.221c-0.378,0.604-0.588,1.308-1.151,1.658
	c-0.121,0.346-1.24-0.216-1.394,0.132c-0.407,0.578-1.302,2.619-0.348,1.972c1.475-1.031,2.151-1.793,3.271-2.795
	c-0.81,1.09-1.715,2.082-3.252,3.007c-0.949,0.542-2.518,0.851-3.686,1.545c-0.471,0.411-0.965,0.839-1.474,1.282
	c1.655-0.496,3.315-1.145,4.979-2.021c0,0,1.087-0.267,1.499-0.279l-0.415,0.274l0.052,0.039c-1.165,0.856-2.516,1.748-3.705,2.452
	l-0.509,0.287c-0.251,0.123-0.531,0.207-0.827,0.258c-0.435,0.09-0.898,0.161-1.392,0.252c-0.657,0.049-1.297,0.807-2.31,1.101
	c-0.16,0.096-0.211-0.34-0.505-0.167c-0.726,0.288-1.343,0.555-2.052,0.674c-0.31,0.152-0.887-0.244-1.188-0.116
	c-0.723,0.235-2.636,0.956-1.491,0.837c1.726-0.244,2.842-0.52,4.373-0.873c-1.346,0.439-2.771,0.797-4.456,0.963
	c-1.052,0.096-2.396-0.002-3.658,0.074c-0.456,0.069-0.946,0.126-1.392,0.188c-1.107,0.154-2.256,0.293-3.484,0.318
	c-0.326-0.002-0.658,0.008-0.987,0.018c-0.048,1.729-0.069,3.434-0.388,5.209l-0.216,1.374l-0.105,0.694l-0.089,0.059l0.089-0.055
	v0.17c-0.515,0.16-0.358,0.367-0.224,0.574l0.116,0.188l-0.067,0.531c0.337,0.026,0.725,0.059,1.084,0.072
	c8.125,0.424,15.281,3.729,20.12,9.311v0.26c0.006,1.086,0.464,2.039,1.202,2.654l-0.525,0.004l0.003,0.645
	c0.003,0.344,0.108,1.434,1.728,1.531l0.227,0.017c0,0,0.035-0.233,0.064-0.383h0.844c0.162,0.263,0.6,0.978,0.6,0.978v-0.01
	l0.026,0.039c-0.026,0.066-0.032,0.145-0.032,0.145c-0.003,0.784,0.437,1.314,0.688,1.576c0.107,0.313,0.375,1.102,0.375,1.102
	c0.137,0.361,0.299,0.623,0.492,0.857c-0.031,0.07-0.053,0.121-0.053,0.121l-0.273,0.673c0,0,1.176,0.618,1.448,0.78l-0.026,0.096
	l-0.039,0.212l0.006,0.052c3.248-2.699,6.244-5.834,8.941-9.442C96.655,57.842,95.17,45.28,89.765,35.272 M57.826,17.997
	l-0.286-0.396c0.189-0.058,0.392-0.145,0.395-0.01C57.844,17.772,57.829,17.884,57.826,17.997 M58.662,19.031
	c-0.17-0.124-0.21-0.255-0.222-0.39l-0.236-0.158l-0.098-0.021l-0.066-0.083l0.164,0.104c0.127,0.025,0.267-0.076,0.334-0.184
	l0.221-0.328c-0.057,0.072-0.113,0.221-0.221,0.328c-0.054,0.107-0.098,0.244-0.098,0.342
	C58.559,18.745,58.651,18.867,58.662,19.031 M62.096,20.171c-0.256-0.194,0.715-0.787,0.441-1.039
	c-0.161-0.601-0.762-1.043-1.267-1.494c-0.329-0.154,0.542-0.531,0.37-0.627c-0.68-0.784-2.098-0.567-2.252-1.076
	c-0.178-0.395-0.415-0.719-0.609-1.095c0.189,0.239,0.373,0.482,0.647,0.647c1.038,0.514,2.081,1.186,2.89,2.133
	c0.715,1.269,1.162,2.258,1.355,3.778C63.735,22.38,62.473,20.702,62.096,20.171 M79.487,38.978
	c-0.044,0.164-0.061,0.293-0.24,0.408c-0.135,0.039-0.291,0.117-0.412,0.192L79.487,38.978z M77.682,40.636l0.321-0.348l0.062-0.096
	l0.117-0.117l-0.179,0.213l-0.017-0.002c-0.088,0.153-0.037,0.178,0.087,0.167l0.213-0.04c0.054-0.016,0.078-0.018,0.078-0.018
	l-0.078,0.018c-0.054,0.01-0.14,0.029-0.213,0.04C77.95,40.491,77.809,40.554,77.682,40.636c-0.204,0.182-0.404,0.33-0.641,0.477
	C77.247,40.894,77.469,40.761,77.682,40.636 M74.456,71.364c-0.18-0.051-0.175-0.162-0.175-0.162s0.075-0.139,0.135-0.199
	c0.043,0.016,0.07,0.037,0.108,0.036C74.504,71.157,74.456,71.364,74.456,71.364 M75.054,71.997
	c0.052-0.283,0.101-0.564,0.101-0.564c0.152,0.037,0.199,0.128,0.199,0.241C75.354,71.674,75.224,71.833,75.054,71.997
	 M80.619,39.679c-0.806,1.01-1.593,1.983-2.559,2.876c-1.257,0.986-2.194,1.646-3.766,2.509c-1.041,0.526,0.521-0.84,1.103-1.327
	c0.253-0.213,0.919-0.101,1.15-0.352c0.655-0.358,1.052-0.927,1.623-1.45c0.199-0.269,0.438,0.086,0.521-0.061
	c0.796-0.748,1.027-1.658,1.566-2.057c0.412-0.295,0.776-0.578,1.089-0.877L80.619,39.679z M83.562,25.687
	c0.144,0.184,0.331,0.35,0.138,0.453c-0.219,0.045-0.386,0.108-0.518,0.195C83.323,26.128,83.436,25.908,83.562,25.687
	 M83.158,27.353c-0.178,0.034-0.343,0.091-0.461,0.197c-0.064,0.202-0.161,0.403-0.329,0.578c0.029-0.28,0.135-0.471,0.329-0.578
	c0.017-0.125,0.046-0.259,0.067-0.405l-0.021-0.118l0.059-0.104l-0.037,0.223v0.007C82.807,27.323,82.98,27.369,83.158,27.353
	l0.331-0.043c0.044,0,0.104-0.018,0.104-0.018l-0.104,0.018C83.401,27.322,83.252,27.341,83.158,27.353 M86.667,26.536
	c-0.095,1.162-0.199,2.359-0.518,3.539c-0.669,1.314-1.095,2.327-2.146,3.646c-0.041,0.059-0.095,0.092-0.095,0.092
	c-0.36,0.756-0.795,1.422-1.439,1.978c0.288-0.265,0.345-0.166,0.14,0.22l-0.322,0.156c0.261-0.697,0.576-1.336,1.14-1.844
	c0,0,0.067-0.312,0.095-0.473c0,0,0.037-0.048,0.067-0.07c-0.173-0.374-0.027-1.572,0.083-2.061c0-0.334,1.295-0.111,1.278-0.486
	c0.423-0.535,0.386-1.273,0.469-1.99c-0.021-0.324,0.876,0.149,0.849-0.042c0.3-0.956-0.587-2.083-0.083-2.506
	c0.337-0.362,0.677-0.677,0.962-1.009C86.977,25.957,86.784,26.218,86.667,26.536 M82.209,30.683c0.023,0.175,0.018,0.52,0.018,0.52
	c-1.019,0.078-1.256,0.695-1.49,1.367l0.602,0.084c0.242-0.325,0.023-0.516-0.391-0.403c1.064-0.188,1.645-0.713,2.04-1.354
	C82.718,30.788,82.459,30.616,82.209,30.683 M78.844,5.882c2.674,2.315,5.915,6.545,7.085,9.742
	c0.743,0.738,1.118-0.002,0.334-3.396c-0.69-3.107-2.364-6.553-3.429-8.519C79.594-0.366,71.391-1.094,78.844,5.882 M75.106,43.052
	c-0.111,0.115-0.346,0.352-0.346,0.352c-0.766,0.057-1.366,0.492-2.006,0.893l0.392,0.064c0.386-0.207,0.383-0.33,0-0.264
	c0.9-0.1,1.639-0.48,2.361-0.925C75.416,43.097,75.368,42.989,75.106,43.052"/>
</svg>
