<?xml version="1.0" encoding="utf-8"?>
<!-- Generator: Adobe Illustrator 16.0.0, SVG Export Plug-In . SVG Version: 6.00 Build 0)  -->
<!DOCTYPE svg PUBLIC "-//W3C//DTD SVG 1.1//EN" "http://www.w3.org/Graphics/SVG/1.1/DTD/svg11.dtd">
<svg version="1.1"
	 id="Layer_1" xmlns:rdf="http://www.w3.org/1999/02/22-rdf-syntax-ns#" xmlns:cc="http://creativecommons.org/ns#" xmlns:dc="http://purl.org/dc/elements/1.1/"
	 xmlns="http://www.w3.org/2000/svg" xmlns:xlink="http://www.w3.org/1999/xlink" x="0px" y="0px" width="24px" height="24px"
	 viewBox="0 0 24 24" enable-background="new 0 0 24 24" xml:space="preserve">
<g transform="translate(0 -1028.4)">
	<rect x="-20.167" y="1031.4" fill="#C0392B" width="3" height="6"/>
	<path fill="#BDC3C7" d="M-25.167,1031.431l-9,8.969v1.813v5.375v1.813h1h8h8h1v-1.813v-5.375v-1.813L-25.167,1031.431z"/>
	<path fill="#95A5A6" d="M-25.167,1032l-9,8.9v1.9v0.1l9-9l9,9v-0.1v-1.9L-25.167,1032z"/>
	<g>
		<path fill="#E74C3C" d="M-25.167,1029.4l-11.314,11.3l1.415,1.4l9.899-9.9l9.898,9.9l1.416-1.4L-25.167,1029.4z"/>
		<path fill="#3498DB" d="M-23.167,1038.4c0,1.104-0.896,2-2,2s-2-0.896-2-2s0.896-2,2-2S-23.167,1037.296-23.167,1038.4z"/>
		<rect x="-27.167" y="1043.4" fill="#E67E22" width="4" height="6"/>
		<path fill="#D35400" d="M-23.667,1046.9c0,0.275-0.224,0.5-0.5,0.5s-0.5-0.225-0.5-0.5s0.224-0.5,0.5-0.5
			S-23.667,1046.625-23.667,1046.9z"/>
		<path fill="#2980B9" d="M-25.167,1036.4c-1.105,0-2,0.9-2,2c0,0.1,0.021,0.3,0.062,0.5c0.222-0.9,1.006-1.5,1.938-1.5
			s1.716,0.6,1.938,1.5c0.041-0.2,0.063-0.4,0.063-0.5C-23.167,1037.3-24.062,1036.4-25.167,1036.4z"/>
		<path fill="#F1C40F" d="M-23.667,1046.4c0,0.275-0.224,0.5-0.5,0.5s-0.5-0.225-0.5-0.5s0.224-0.5,0.5-0.5
			S-23.667,1046.125-23.667,1046.4z"/>
		<rect x="-27.167" y="1042.4" fill="#D35400" width="4" height="1"/>
	</g>
</g>
<path fill="#888888" d="M99.051,11.819c-0.389,0-0.705,0.317-0.705,0.707v9.695c0,0.387-0.32,0.707-0.709,0.707h-3.632
	c-0.388,0-0.707-0.32-0.707-0.707v-5.455c0-0.389-0.317-0.705-0.706-0.705h-5.186c-0.387,0-0.706,0.316-0.706,0.705v5.455
	c0,0.387-0.317,0.707-0.706,0.707h-3.633c-0.389,0-0.709-0.32-0.709-0.707v-9.695c0-0.389-0.317-0.707-0.705-0.707h-1.68
	c-0.388,0-0.478-0.221-0.197-0.491L89.501,1.274c0.281-0.269,0.737-0.269,1.019,0.001l10.412,10.053
	c0.277,0.27,0.188,0.491-0.199,0.491H99.051L99.051,11.819z"/>
<g>
	<g>
		<circle fill="#888888" cx="55.878" cy="-31.938" r="2.88"/>
	</g>
	<g>
		<path fill="#888888" d="M65.188-30.76h0.247h0.579c0.613,0,1.115-0.503,1.115-1.115c0-0.613-0.502-1.115-1.115-1.115h-0.579
			h-0.247h-0.486c-0.051-0.427-0.128-0.855-0.244-1.28l0.936-0.386c0.568-0.234,0.841-0.89,0.605-1.457
			c-0.233-0.566-0.89-0.839-1.456-0.605l-0.935,0.386c-0.211-0.372-0.449-0.722-0.706-1.053l0.35-0.349l0.175-0.175l0.409-0.41
			c0.434-0.434,0.434-1.144,0-1.577c-0.433-0.433-1.143-0.433-1.576,0l-0.409,0.41l-0.176,0.176l-0.354,0.352
			c-0.327-0.252-0.669-0.484-1.027-0.689l0.394-0.945c0.235-0.565-0.035-1.222-0.602-1.457c-0.565-0.236-1.222,0.034-1.457,0.601
			l-0.394,0.944c-0.338-0.093-0.684-0.161-1.031-0.214v-0.47v-0.248v-0.579c0-0.613-0.502-1.115-1.115-1.115
			c-0.612,0-1.115,0.502-1.115,1.115v0.579v0.248v0.42c-0.476,0.049-0.952,0.124-1.425,0.253l-0.389-0.941
			c-0.233-0.566-0.89-0.839-1.456-0.605s-0.84,0.89-0.605,1.457l0.389,0.942c-0.373,0.211-0.722,0.449-1.053,0.706l-0.354-0.354
			l-0.176-0.176l-0.409-0.409c-0.434-0.434-1.144-0.434-1.577,0c-0.433,0.433-0.433,1.143,0,1.576l0.409,0.41l0.176,0.176
			l0.357,0.357c-0.252,0.328-0.484,0.669-0.688,1.026l-0.946-0.394c-0.566-0.235-1.223,0.037-1.457,0.602
			c-0.236,0.566,0.034,1.222,0.601,1.458l0.945,0.393c-0.117,0.426-0.194,0.861-0.247,1.302h-0.504h-0.247h-0.58
			c-0.612,0-1.114,0.502-1.114,1.115c0,0.612,0.502,1.115,1.114,1.115h0.58h0.247h0.509c0.053,0.386,0.129,0.772,0.232,1.156
			l-0.947,0.392c-0.565,0.233-0.839,0.89-0.605,1.456c0.234,0.566,0.891,0.838,1.457,0.605l0.946-0.392
			c0.211,0.37,0.448,0.718,0.703,1.048l-0.353,0.353l-0.176,0.176l-0.41,0.409c-0.433,0.434-0.433,1.144,0,1.578
			c0.434,0.433,1.145,0.433,1.577,0l0.41-0.41l0.176-0.176l0.354-0.354c0.33,0.253,0.673,0.487,1.032,0.692l-0.393,0.944
			c-0.235,0.566,0.035,1.223,0.602,1.458c0.565,0.234,1.222-0.035,1.457-0.603l0.393-0.943c0.472,0.13,0.957,0.207,1.446,0.258
			v0.549v0.249v0.579c0,0.612,0.503,1.114,1.115,1.114c0.613,0,1.115-0.502,1.115-1.114v-0.579v-0.249v-0.595
			c0.338-0.05,0.676-0.11,1.011-0.203l0.389,0.943c0.233,0.566,0.89,0.84,1.456,0.604c0.565-0.234,0.839-0.891,0.604-1.457
			l-0.388-0.941c0.37-0.209,0.718-0.446,1.048-0.701l0.348,0.349l0.176,0.175l0.41,0.409c0.433,0.435,1.143,0.435,1.576,0
			c0.433-0.433,0.433-1.143,0-1.576l-0.409-0.41l-0.176-0.176l-0.351-0.351c0.254-0.328,0.489-0.671,0.694-1.03l0.942,0.391
			c0.565,0.235,1.221-0.035,1.456-0.602c0.236-0.565-0.034-1.221-0.601-1.456l-0.942-0.393c0.106-0.386,0.186-0.779,0.239-1.177
			H65.188z M58.424-25.773c-3.398,1.401-7.303-0.222-8.705-3.62s0.223-7.303,3.619-8.706c3.397-1.402,7.303,0.221,8.706,3.619
			C63.446-31.081,61.822-27.177,58.424-25.773z"/>
	</g>
</g>
<g>
	<g id="Rectangle_4_5_">
		<g>
			<path fill="#888888" d="M23.769,13.682v-3.363L19.922,9.22c-0.103-0.292-0.223-0.577-0.355-0.853l1.943-3.499L19.133,2.49
				l-3.496,1.942c-0.277-0.134-0.563-0.254-0.857-0.357l-1.098-3.843h-3.363L9.221,4.074c-0.294,0.103-0.58,0.223-0.858,0.357
				L4.868,2.49L2.49,4.868l1.944,3.5C4.301,8.644,4.181,8.928,4.078,9.22l-3.847,1.099v3.363l3.847,1.1
				c0.103,0.292,0.223,0.576,0.355,0.852l-1.944,3.5l2.378,2.377l3.495-1.941c0.278,0.134,0.564,0.254,0.859,0.357l1.098,3.843
				h3.363l1.098-3.843c0.294-0.104,0.58-0.224,0.858-0.357l3.495,1.941l2.377-2.377l-1.944-3.499
				c0.134-0.277,0.254-0.562,0.356-0.854L23.769,13.682z M12,15.923c-2.166,0-3.923-1.756-3.923-3.923S9.834,8.077,12,8.077
				c2.167,0,3.923,1.756,3.923,3.923S14.167,15.923,12,15.923z"/>
		</g>
	</g>
</g>
</svg>
