<?xml version="1.0" encoding="utf-8"?>
<!-- Generator: Adobe Illustrator 16.0.0, SVG Export Plug-In . SVG Version: 6.00 Build 0)  -->
<!DOCTYPE svg PUBLIC "-//W3C//DTD SVG 1.1//EN" "http://www.w3.org/Graphics/SVG/1.1/DTD/svg11.dtd">
<svg version="1.1" id="Layer_1" xmlns="http://www.w3.org/2000/svg" xmlns:xlink="http://www.w3.org/1999/xlink" x="0px" y="0px"
	 width="31px" height="31px" viewBox="0 0 31 31" enable-background="new 0 0 31 31" xml:space="preserve">
<g>
	<g>
		<path d="M0,0h31v31H0V0z"/>
	</g>
	<g opacity="0.6">
		<path fill="#535353" d="M47.629,12.897h-3.117V10.74c0-0.661,0.721-0.815,1.057-0.815s2.055-0.002,2.055-0.002V7.001h-2.346
			c-3.152,0-3.869,2.173-3.869,3.563v2.333h-2.286v3.002h2.286c0,3.852,0,8.102,0,8.102h3.104c0,0,0-4.295,0-8.102h2.637
			L47.629,12.897z"/>
	</g>
</g>
<g>
	<g>
		<g>
			<rect x="-36.616" y="12.538" fill="#535353" width="0.881" height="9.323"/>
		</g>
		<g>
			<rect x="-34.065" y="12.538" fill="#535353" width="0.881" height="9.323"/>
		</g>
		<g>
			<rect x="-31.515" y="12.538" fill="#535353" width="0.882" height="9.323"/>
		</g>
	</g>
	<g>
		<path fill="#535353" d="M-31.294,9.158V8.465c0-0.764-0.621-1.386-1.386-1.386h-1.891c-0.764,0-1.386,0.622-1.386,1.386v0.693
			h-3.784v0.881h12.229V9.158H-31.294z M-35.075,8.465c0-0.278,0.227-0.505,0.505-0.505h1.891c0.278,0,0.505,0.227,0.505,0.505
			v0.693h-2.9V8.465z"/>
	</g>
	<g>
		<g>
			<path fill="#535353" d="M-30.192,23.921h-6.865c-1.493,0-2.707-1.215-2.707-2.707V10.778h12.279v10.436
				C-27.485,22.707-28.699,23.921-30.192,23.921z M-38.884,11.659v9.555c0,1.007,0.819,1.826,1.826,1.826h6.865
				c1.007,0,1.826-0.819,1.826-1.826v-9.555H-38.884z"/>
		</g>
	</g>
</g>
<g>
	<g>
		<path fill="#FFFFFF" d="M20.104,14.661v6.414c0,1.005-0.816,1.821-1.821,1.821H9.893c-1.004,0-1.821-0.816-1.821-1.821v-8.39
			c0-1.004,0.817-1.822,1.821-1.822h6.544l1.165-1.164H9.893c-1.646,0-2.985,1.339-2.985,2.986v8.39c0,1.647,1.34,2.986,2.985,2.986
			h8.391c1.647,0,2.986-1.339,2.986-2.986v-7.579L20.104,14.661z"/>
	</g>
	<g>
		<path fill="#FFFFFF" d="M15.739,17.378l8.184-8.183c0.227-0.228,0.227-0.597,0-0.824L22.66,7.11c-0.227-0.227-0.597-0.228-0.823,0
			l-8.183,8.184L15.739,17.378z"/>
	</g>
	<g>
		<polygon fill="#FFFFFF" points="12.007,19.025 15.469,17.649 13.384,15.564 		"/>
	</g>
</g>
</svg>
