<?xml version="1.0" encoding="utf-8"?>
<!-- Generator: Adobe Illustrator 16.0.0, SVG Export Plug-In . SVG Version: 6.00 Build 0)  -->
<!DOCTYPE svg PUBLIC "-//W3C//DTD SVG 1.1//EN" "http://www.w3.org/Graphics/SVG/1.1/DTD/svg11.dtd">
<svg version="1.1"
	 id="Layer_1" xmlns:rdf="http://www.w3.org/1999/02/22-rdf-syntax-ns#" xmlns:cc="http://creativecommons.org/ns#" xmlns:dc="http://purl.org/dc/elements/1.1/"
	 xmlns="http://www.w3.org/2000/svg" xmlns:xlink="http://www.w3.org/1999/xlink" x="0px" y="0px" width="24px" height="24px"
	 viewBox="0 0 24 24" enable-background="new 0 0 24 24" xml:space="preserve">
<g transform="translate(0 -1028.4)">
	<path fill="#8D8D8D" d="M14.938,1040.681l-2.843,2.813L19,1050.4l2.844-2.844L14.938,1040.681z"/>
	<path fill="#545454" d="M15.563,1041.2c-0.474,1.3-1.473,2.399-2.75,2.899L15,1046.4c1.16-0.699,2.137-1.699,2.813-2.9
		L15.563,1041.2z"/>
	<path fill="#8D8D8D" d="M18,1038.4c0,4.418-3.582,8-8,8c-4.418,0-8-3.582-8-8c0-4.418,3.582-8,8-8
		C14.418,1030.4,18,1033.982,18,1038.4z"/>
	<path fill="#E4E4E4" d="M15,1038.4c0,2.762-2.238,5-5,5c-2.761,0-5-2.238-5-5c0-2.761,2.239-5,5-5
		C12.762,1033.4,15,1035.639,15,1038.4z"/>
</g>
</svg>
