<?xml version="1.0" encoding="utf-8"?>
<!-- Generator: Adobe Illustrator 16.0.0, SVG Export Plug-In . SVG Version: 6.00 Build 0)  -->
<!DOCTYPE svg PUBLIC "-//W3C//DTD SVG 1.1//EN" "http://www.w3.org/Graphics/SVG/1.1/DTD/svg11.dtd">
<svg version="1.1" xmlns="http://www.w3.org/2000/svg" xmlns:xlink="http://www.w3.org/1999/xlink" x="0px" y="0px" width="24px"
	 height="24px" viewBox="0 0 24 24" enable-background="new 0 0 24 24" xml:space="preserve">
<g id="Layer_1" xmlns:rdf="http://www.w3.org/1999/02/22-rdf-syntax-ns#" xmlns:cc="http://creativecommons.org/ns#" xmlns:dc="http://purl.org/dc/elements/1.1/">
	<g>
		<g>
			<path fill="#6E0904" d="M19.747,18.104c0,2.396-1.95,4.346-4.345,4.346H6.616v-1.694h8.786c1.461,0,2.65-1.189,2.65-2.651"/>
			<path fill="#6E0904" d="M18.053,5.894c0-1.46-1.189-2.649-2.65-2.649H6.616V1.551h8.786c2.395,0,4.345,1.95,4.345,4.343"/>
		</g>
		<g>
			<path fill="#6E0904" d="M15.184,20.755H6.397c-1.462,0-2.65-1.189-2.65-2.651V5.894c0-1.46,1.188-2.649,2.65-2.649h8.787V1.551
				H6.397c-2.395,0-4.345,1.95-4.345,4.343v12.209c0,2.396,1.95,4.346,4.345,4.346h8.787V20.755z"/>
		</g>
	</g>
	<g>
		<polygon fill="#6E0904" points="15.814,8.085 18.109,10.531 9.901,10.531 9.901,13.063 18.011,13.063 15.847,15.841 
			19.053,15.841 22.384,12.008 19.014,8.086 		"/>
	</g>
	<path fill="#6E0904" d="M18.053,5.894c0-1.46-1.189-2.649-2.65-2.649H6.616V1.551h8.786c2.395,0,4.345,1.95,4.345,4.343"/>
	<g>
		<path fill="#6E0904" d="M15.184,20.755H6.397c-1.462,0-2.65-1.189-2.65-2.651V5.894c0-1.46,1.188-2.649,2.65-2.649h8.787V1.551
			H6.397c-2.395,0-4.345,1.95-4.345,4.343v12.209c0,2.396,1.95,4.346,4.345,4.346h8.787V20.755z"/>
	</g>
	<path fill="#6E0904" d="M18.83,17.471c0,2.147-1.748,3.896-3.895,3.896H7.06v-1.519h7.875c1.31,0,2.376-1.066,2.376-2.377"/>
	<path fill="#6E0904" d="M17.312,6.527c0-1.309-1.066-2.374-2.376-2.374H7.06V2.634h7.875c2.146,0,3.895,1.748,3.895,3.893"/>
	<g>
		<path fill="#6E0904" d="M14.739,19.848H6.864c-1.311,0-2.376-1.066-2.376-2.377V6.527c0-1.309,1.065-2.374,2.376-2.374h7.875
			V2.634H6.864c-2.147,0-3.895,1.748-3.895,3.893v10.944c0,2.147,1.748,3.896,3.895,3.896h7.875V19.848z"/>
	</g>
	<rect x="17.406" y="5.894" fill="#6E0904" width="2.341" height="0.633"/>
	<rect x="17.406" y="17.471" fill="#6E0904" width="2.341" height="0.701"/>
</g>
<g id="Layer_2">
</g>
</svg>
