<?xml version="1.0" encoding="utf-8"?>
<!-- Generator: Adobe Illustrator 16.0.0, SVG Export Plug-In . SVG Version: 6.00 Build 0)  -->
<!DOCTYPE svg PUBLIC "-//W3C//DTD SVG 1.1//EN" "http://www.w3.org/Graphics/SVG/1.1/DTD/svg11.dtd">
<svg version="1.1"
	 id="Layer_1" xmlns:dc="http://purl.org/dc/elements/1.1/" xmlns:cc="http://creativecommons.org/ns#" xmlns:rdf="http://www.w3.org/1999/02/22-rdf-syntax-ns#"
	 xmlns="http://www.w3.org/2000/svg" xmlns:xlink="http://www.w3.org/1999/xlink" x="0px" y="0px" width="24px" height="24px"
	 viewBox="0 0 24 24" enable-background="new 0 0 24 24" xml:space="preserve">
<path fill="#6E0904" d="M19.204,9.879c-0.017-0.096-0.075-0.191-0.164-0.282c-0.716,0.728-3.599,0.849-7.041,0.849
	c-3.445,0-6.324-0.121-7.044-0.849C4.869,9.688,4.813,9.783,4.792,9.879H4.786v0.053V9.95c0,0.015,0.003,0.027,0.003,0.041
	l0.562,11.487h0.003c0.048,0.898,1.082,2.263,6.645,2.263c5.563,0,6.597-1.361,6.644-2.263h0.006L19.21,9.991
	c0.001-0.014,0.006-0.026,0.006-0.041c0-0.006-0.005-0.012-0.005-0.018l0.005-0.053H19.204z"/>
<path fill="#6E0904" d="M9.989,3.756L9.762,3.77V2.646c0-0.491,0.068-0.894,0.149-0.894h1.044h1.789h1.045
	c0.082,0,0.146,0.403,0.146,0.894v1.105c-0.621-0.032-1.271-0.052-1.938-0.052C11.305,3.699,10.631,3.719,9.989,3.756 M15.428,3.867
	V1.155c0-0.489-0.4-0.896-0.896-0.896H9.164c-0.489,0-0.892,0.406-0.892,0.896v2.744c-2.655,0.301-4.47,0.91-4.47,1.617v1.341
	c0,0.275,0.278,0.536,0.779,0.774c1.309,0.612,4.137,1.04,7.416,1.04c3.28,0,6.11-0.427,7.42-1.04
	c0.496-0.238,0.778-0.499,0.778-0.774V5.516C20.197,4.785,18.24,4.155,15.428,3.867"/>
</svg>
