<?xml version="1.0" encoding="utf-8"?>
<!-- Generator: Adobe Illustrator 16.0.0, SVG Export Plug-In . SVG Version: 6.00 Build 0)  -->
<!DOCTYPE svg PUBLIC "-//W3C//DTD SVG 1.1//EN" "http://www.w3.org/Graphics/SVG/1.1/DTD/svg11.dtd">
<svg version="1.1" id="Layer_1" xmlns="http://www.w3.org/2000/svg" xmlns:xlink="http://www.w3.org/1999/xlink" x="0px" y="0px"
	 width="31px" height="31px" viewBox="0 0 31 31" enable-background="new 0 0 31 31" xml:space="preserve">
<g>
	<g>
		<path d="M0,0h31v31H0V0z"/>
	</g>
</g>
<g>
	<g>
		<g>
			<rect x="12.508" y="12.387" fill="#FFFFFF" width="0.881" height="9.323"/>
		</g>
		<g>
			<rect x="15.06" y="12.387" fill="#FFFFFF" width="0.881" height="9.323"/>
		</g>
		<g>
			<rect x="17.609" y="12.387" fill="#FFFFFF" width="0.883" height="9.323"/>
		</g>
	</g>
	<g>
		<path fill="#FFFFFF" d="M17.831,9.007V8.313c0-0.764-0.621-1.386-1.386-1.386h-1.891c-0.764,0-1.386,0.622-1.386,1.386v0.693
			H9.385v0.881h12.229v-0.88H17.831z M14.05,8.313c0-0.278,0.227-0.505,0.505-0.505h1.89c0.279,0,0.506,0.227,0.506,0.505v0.693
			h-2.9L14.05,8.313L14.05,8.313z"/>
	</g>
	<g>
		<g>
			<path fill="#FFFFFF" d="M18.934,23.77h-6.866c-1.493,0-2.708-1.215-2.708-2.707V10.627h12.281v10.436
				C21.641,22.555,20.426,23.77,18.934,23.77z M10.241,11.508v9.555c0,1.008,0.82,1.826,1.827,1.826h6.866
				c1.006,0,1.825-0.818,1.825-1.826v-9.555H10.241z"/>
		</g>
	</g>
</g>
</svg>
