<?xml version="1.0" encoding="utf-8"?>
<!-- Generator: Adobe Illustrator 16.0.0, SVG Export Plug-In . SVG Version: 6.00 Build 0)  -->
<!DOCTYPE svg PUBLIC "-//W3C//DTD SVG 1.1//EN" "http://www.w3.org/Graphics/SVG/1.1/DTD/svg11.dtd">
<svg version="1.1" id="Layer_1" xmlns="http://www.w3.org/2000/svg" xmlns:xlink="http://www.w3.org/1999/xlink" x="0px" y="0px"
	 width="31px" height="31px" viewBox="0 0 31 31" enable-background="new 0 0 31 31" xml:space="preserve">
<g>
	<g>
		<path fill="#E4E4E4" d="M0,0h31v31H0V0z"/>
	</g>
	<g opacity="0.6">
		<path fill="#535353" d="M47.629,12.897h-3.117V10.74c0-0.661,0.721-0.815,1.057-0.815s2.055-0.002,2.055-0.002V7.001h-2.346
			c-3.152,0-3.869,2.173-3.869,3.563v2.333h-2.286v3.002h2.286c0,3.852,0,8.102,0,8.102h3.104c0,0,0-4.295,0-8.102h2.637
			L47.629,12.897z"/>
	</g>
</g>
<g>
	<g>
		<g>
			<rect x="12.508" y="12.387" fill="#535353" width="0.881" height="9.323"/>
		</g>
		<g>
			<rect x="15.06" y="12.387" fill="#535353" width="0.881" height="9.323"/>
		</g>
		<g>
			<rect x="17.61" y="12.387" fill="#535353" width="0.882" height="9.323"/>
		</g>
	</g>
	<g>
		<path fill="#535353" d="M17.831,9.007V8.313c0-0.764-0.621-1.386-1.386-1.386h-1.891c-0.764,0-1.386,0.622-1.386,1.386v0.693
			H9.385v0.881h12.229V9.007H17.831z M14.05,8.313c0-0.278,0.227-0.505,0.505-0.505h1.891c0.278,0,0.505,0.227,0.505,0.505v0.693
			h-2.9V8.313z"/>
	</g>
	<g>
		<g>
			<path fill="#535353" d="M18.933,23.77h-6.865c-1.493,0-2.708-1.215-2.708-2.707V10.627h12.28v10.436
				C21.64,22.555,20.426,23.77,18.933,23.77z M10.241,11.508v9.555c0,1.007,0.82,1.826,1.827,1.826h6.865
				c1.007,0,1.826-0.819,1.826-1.826v-9.555H10.241z"/>
		</g>
	</g>
</g>
</svg>
