<?xml version="1.0" encoding="utf-8"?>
<!-- Generator: Adobe Illustrator 16.0.0, SVG Export Plug-In . SVG Version: 6.00 Build 0)  -->
<!DOCTYPE svg PUBLIC "-//W3C//DTD SVG 1.1//EN" "http://www.w3.org/Graphics/SVG/1.1/DTD/svg11.dtd">
<svg version="1.1"
	 id="Layer_1" xmlns:rdf="http://www.w3.org/1999/02/22-rdf-syntax-ns#" xmlns:cc="http://creativecommons.org/ns#" xmlns:dc="http://purl.org/dc/elements/1.1/"
	 xmlns="http://www.w3.org/2000/svg" xmlns:xlink="http://www.w3.org/1999/xlink" x="0px" y="0px" width="24px" height="24px"
	 viewBox="0 0 24 24" enable-background="new 0 0 24 24" xml:space="preserve">
<rect x="-5.25" y="-5.25" fill="#CBCBCB" width="36.25" height="35"/>
<g>
	<g>
		<g>
			<path fill="#838383" d="M15.715,11.679l-0.009-0.1c0,0.016-0.003,0.033-0.009,0.05C15.697,11.65,15.706,11.661,15.715,11.679z"/>
			<polygon fill="#838383" points="15.703,11.488 15.703,11.471 15.697,11.456 			"/>
			<path fill="#838383" d="M15.685,11.451c-0.003,0.008-0.004,0.025-0.007,0.031L15.685,11.451z"/>
			<path fill="#838383" d="M15.842,12.4c-0.009-0.015-0.026-0.043-0.026-0.044c-0.003-0.083-0.028-0.158-0.057-0.234l-0.006,0.042
				c0.012,0.044,0.021,0.046,0.018,0.003c0.004,0.101,0.028,0.189,0.061,0.276C15.837,12.431,15.847,12.429,15.842,12.4z"/>
			<polygon fill="#838383" points="15.85,12.49 15.831,12.443 15.83,12.445 15.85,12.494 			"/>
		</g>
	</g>
	<path fill="#838383" d="M19.573,7.283c-0.003,0-0.003-0.004-0.003-0.006c0.009-0.008,0.017-0.017,0.025-0.026
		C19.589,7.26,19.579,7.271,19.573,7.283z"/>
	<path fill="#838383" d="M14.502,6.22c0.023,0.015,0.065,0.055,0.066,0.056c-0.117,0.104-0.068,0.189-0.02,0.292l0.093-0.04
		c-0.014-0.061-0.062-0.065-0.104-0.017c0.114-0.112,0.124-0.235,0.085-0.349C14.575,6.178,14.52,6.186,14.502,6.22z M17.498,9.196
		c0.032,0.011,0.071,0.012,0.088,0.019C17.558,9.206,17.524,9.198,17.498,9.196z M14.336,7.304l-0.074,0.003
		C14.288,7.309,14.32,7.304,14.336,7.304z M17.35,9.252c0.017-0.015,0.031-0.03,0.047-0.045c-0.004,0-0.01,0.002-0.013,0.002
		C17.372,9.224,17.36,9.24,17.35,9.252z M17.498,9.196c-0.034-0.009-0.062-0.024-0.055-0.057V9.138l-0.047,0.069
		C17.428,9.195,17.464,9.191,17.498,9.196z M14.262,7.307c-0.029-0.002-0.056-0.012-0.065-0.039V7.267
		c-0.002,0.02-0.002,0.042-0.006,0.062C14.211,7.318,14.232,7.309,14.262,7.307z M16.392,9.81c-0.124-0.038-0.242-0.059-0.294,0.051
		C16.225,9.899,16.337,9.875,16.392,9.81z M12.737,12.727c-0.093,0.047-0.127,0.103-0.09,0.141
		C12.745,12.824,12.821,12.776,12.737,12.727z M14.171,7.37c0.008-0.014,0.012-0.027,0.02-0.042
		c-0.004,0.002-0.008,0.004-0.01,0.006C14.179,7.345,14.176,7.358,14.171,7.37z M12.645,13.437c0.001,0,0.003,0,0.003,0
		c-0.002-0.003-0.006-0.007-0.008-0.01C12.642,13.43,12.645,13.434,12.645,13.437z M17.638,17.335
		c0.003-0.017,0.008-0.034,0.008-0.051l-0.003-0.048c-0.014-0.076-0.063-0.131-0.124-0.172l0.003-0.008c0,0-0.171-0.11-0.177-0.112
		c-0.042-0.027-0.082-0.056-0.116-0.078c0.01-0.037,0.02-0.084,0.02-0.139c0-0.121-0.051-0.208-0.14-0.259
		c-0.085-0.055-0.376-0.171-0.603-0.154c-0.089-0.151-0.195-0.335-0.374-0.459L16.11,15.84l-0.022-0.009
		c-0.162-0.072-0.335-0.122-0.499-0.168c-0.196-0.057-0.379-0.108-0.521-0.191c-1.069-0.684-2.175-0.504-3.345-0.316l-0.769,0.116
		l-0.014,0.004l-0.008,0.003c-0.151,0.043-0.273,0.099-0.394,0.157c-0.101,0.048-0.2,0.094-0.292,0.116
		c-0.543,0.13-0.91,0.562-1.235,0.939c0,0-0.007,0.01-0.009,0.01c-0.296,0.344-0.527,0.576-1.046,0.656
		c-0.616,0.122-0.898,0.649-0.938,0.975l-0.004,0.089c0,0.085,0.023,0.156,0.054,0.221c-0.146,0.206-0.219,0.394-0.269,0.533
		c-0.085,0.228-0.139,0.375-0.435,0.535c1.173,0.486,2.518,0.563,3.813,0.499c2.513,0.098,5.431-0.644,7.75-2.521
		c-0.084-0.074-0.192-0.116-0.275-0.146C17.651,17.342,17.641,17.337,17.638,17.335z M20.088,9.076
		c-0.053-0.904-0.335-1.701-0.784-2.383l-0.031,0.01c-0.009-0.031-0.015-0.06-0.021-0.087c-0.382-0.562-0.879-1.045-1.449-1.445
		c-1.046-2.607-4.963-2.597-7.323-2.105c-1.436,0.08-2.842,0.576-4.008,1.66c-1.67,1.111-3.013,2.886-3.295,6.165
		c-0.044,0.525-0.061,1.027-0.048,1.507c-0.123,1.384-0.016,2.761,0.41,3.979c0.381,1.089,0.943,1.868,1.619,2.419
		c0.096-0.741,0.386-1.708,0.792-2.102l0.445-0.436c1.228-1.208,2.29-2.254,3.867-2.622c0.602-0.121,1.181-0.189,1.756-0.203
		c-0.059-0.057-0.131-0.103-0.135-0.156c-0.043-0.026,0.171-0.081,0.127-0.105c-0.06-0.066-0.331-0.222-0.313-0.122
		c0.036,0.146,0.093,0.242,0.134,0.374c-0.09-0.116-0.165-0.237-0.171-0.383c-0.006-0.091,0.085-0.218,0.047-0.33
		c-0.107-0.149-0.294-0.306-0.306-0.487c0.007-0.209-0.019-0.406-0.049-0.601c-0.228-0.054-0.452-0.123-0.673-0.208
		c-0.297-0.087-0.567-0.13-0.802-0.25c-0.458-0.243-1.008-0.366-1.507-0.606C7.982,10.38,7.625,10.12,7.474,9.77
		C6.922,9.249,6.489,8.578,6.11,7.963C5.926,7.223,5.87,6.722,5.852,6.675C5.85,6.741,5.848,6.816,5.843,6.898
		c0-0.174,0-0.242,0.009-0.223c0.021-0.604,0.036-0.539,0.306-0.894C6.177,5.746,6.932,5.588,7.055,6.19
		C7.048,6.643,7.571,7.16,7.67,7.588c0.026,0.041,0.04,0.082,0,0.019c0.005,0.005,0.005,0.016,0.006,0.026
		c0.017,0.03,0.05,0.053,0.114,0.054C7.885,7.689,8.248,7.84,8.115,7.849C8.127,7.868,8.253,7.934,8.308,8.04
		c0.07,0.14,0.257,0.173,0.298,0.326c0.246,0.907,1.545,1.058,2.539,1.49c0.056,0.024,0.114,0.046,0.17,0.07
		c0.003-0.008,0.003-0.016,0.01-0.024c0.162-0.413-0.385-0.848,0.174-1.216c-0.419-0.157-0.814-0.387-1.167-0.74
		C9.765,7.343,9.568,6.672,9.648,5.97c0.004-0.266,0.006-0.52,0.103-0.746c0.187-0.434,0.4-1.013,0.912-1.396
		c0.528-0.38,1.114-0.397,1.41-0.09c0.439,0.384,1.161,0.276,0.756,0.024c0.314,0.212,0.533,0.267,0.715,0.362
		c0.171,0.095,0.336,0.266,0.224,0.599c-0.002,0.028-0.118,0.198-0.309,0.331c-0.06,0.062-0.063,0.024-0.145,0.125
		c0.104,0,0.211,0.044,0.277,0.168c-0.033-0.049-0.017-0.097,0.043-0.087l0.01,0.094c-0.105,0.013-0.193,0.047-0.261-0.094
		c0,0-0.046,0.033-0.069,0.049c-0.021-0.025-0.019-0.068-0.019-0.109c-0.038,0.05-0.092,0.126-0.169,0.245
		c-0.072,0.125-0.054,0.123-0.068,0.112c-0.01,0.003-0.02,0-0.045,0c-0.039-0.003-0.111-0.01-0.186-0.018
		c-0.149-0.019-0.333-0.038-0.465-0.109c-0.405-0.2-0.595-0.2-0.707-0.114c-0.127,0.091-0.216,0.319-0.31,0.628
		c-0.098,0.311-0.072,0.712,0.11,1.017c0.162,0.252,0.414,0.435,0.705,0.554c0.044-0.018,0.094-0.034,0.153-0.053
		c0.047-0.015,0.876-0.217,1.218,0.065c0.006,0.037,0.011,0.081,0.021,0.125c0.04-0.009,0.082-0.022,0.122-0.04
		c0.052-0.022,0.113-0.035,0.158-0.067l0.022,0.005L13.84,7.54l0.034-0.019c0.08,0.042,0.116-0.011,0.14-0.063l0.021-0.047
		c0.049-0.055,0.118-0.099,0.155-0.167l0.006,0.023l0.006-0.041l0.057-0.082c0.021-0.013,0.05-0.019,0.086-0.026
		c0.027-0.017-0.009-0.044-0.036-0.072c0.101-0.215,0.139-0.473,0.11-0.733c0.006,0.001,0.101-0.145,0.177-0.214l0.027,0.065
		L14.64,6.16c0.111,0.188,0.204,0.417,0.281,0.635l0.031,0.091c0,0.042-0.013,0.081-0.037,0.125l-0.147,0.197
		c-0.069,0.078,0.064,0.286,0.003,0.484c-0.001,0.037-0.146-0.067-0.149-0.003c-0.046,0.131-0.06,0.289-0.17,0.369
		c-0.023,0.07-0.227-0.024-0.244,0.041c-0.069,0.105-0.306,0.487-0.109,0.376c0.291-0.179,0.454-0.356,0.617-0.61
		c-0.101,0.263-0.32,0.5-0.622,0.649c-0.195,0.095-0.479,0.095-0.704,0.16c-0.013,0.006-0.023,0.009-0.034,0.017
		c-0.225,0.509-0.042,0.967-0.215,1.481c-0.018,0.048-0.032,0.099-0.048,0.149c1.089,0.056,2.06-0.182,3.045-0.547
		c0.161-0.067,0.32-0.127,0.473-0.203l0.231-0.112l0.028,0.001l-0.019-0.006l0.054-0.028c0.102,0.038,0.156-0.025,0.206-0.087
		c0.013-0.016,0.028-0.034,0.047-0.05c0.098-0.057,0.198-0.113,0.293-0.176l-0.007,0.027l0.031-0.042l0.126-0.079
		c0.028-0.007,0.063-0.009,0.111-0.002c0.041-0.007,0.025-0.047,0.017-0.089c0.275-0.198,0.537-0.419,0.767-0.688
		c-0.001,0,0.229-0.069,0.348-0.07l-0.041,0.074l0.018,0.007c-0.09,0.236-0.201,0.495-0.297,0.732l-0.037,0.098
		c-0.035,0.041-0.08,0.068-0.127,0.095c-0.082,0.034-0.167,0.067-0.261,0.102c-0.127,0.038-0.068,0.292-0.193,0.435
		c-0.008,0.034-0.133-0.105-0.154-0.041c-0.074,0.117-0.115,0.245-0.226,0.316c-0.022,0.063-0.233-0.04-0.258,0.022
		c-0.085,0.111-0.254,0.5-0.072,0.376c0.279-0.195,0.414-0.34,0.625-0.528c-0.152,0.208-0.33,0.396-0.619,0.568
		c-0.183,0.104-0.48,0.163-0.702,0.295c-0.09,0.078-0.185,0.158-0.286,0.241c0.319-0.092,0.636-0.214,0.952-0.38
		c0,0.002,0.208-0.051,0.285-0.056l-0.077,0.056l0.005,0.004c-0.222,0.167-0.477,0.333-0.706,0.466l-0.096,0.059
		c-0.054,0.021-0.103,0.037-0.156,0.049c-0.084,0.013-0.17,0.027-0.266,0.043c-0.128,0.009-0.249,0.154-0.443,0.211
		c-0.028,0.016-0.038-0.065-0.096-0.035c-0.137,0.057-0.255,0.108-0.39,0.131c-0.059,0.028-0.169-0.049-0.228-0.023
		c-0.14,0.044-0.503,0.179-0.284,0.158c0.333-0.044,0.544-0.097,0.835-0.167c-0.257,0.083-0.529,0.154-0.854,0.183
		c-0.198,0.02-0.454-0.002-0.694,0.014c-0.09,0.012-0.177,0.023-0.267,0.036c-0.21,0.029-0.431,0.053-0.666,0.055
		c-0.06,0.004-0.122,0.005-0.186,0.006c-0.011,0.331-0.02,0.653-0.078,0.992l-0.038,0.261l-0.018,0.133l-0.02,0.013l0.016-0.009
		l-0.005,0.032c-0.093,0.028-0.065,0.068-0.035,0.107l0.017,0.037l-0.013,0.103c0.069,0.004,0.14,0.006,0.208,0.012
		c1.551,0.084,2.909,0.716,3.832,1.78c0,0.024,0,0.047,0,0.047c0,0.211,0.085,0.391,0.23,0.509c-0.029,0-0.104,0-0.104,0v0.124
		c0,0.064,0.022,0.277,0.33,0.294l0.043,0.005c0,0,0.006-0.043,0.015-0.077h0.161c0.029,0.054,0.113,0.19,0.113,0.19l0,0
		l0.002,0.003c-0.003,0.015-0.004,0.03-0.004,0.03c0,0.148,0.085,0.249,0.132,0.301c0.021,0.059,0.07,0.209,0.07,0.209
		c0.022,0.068,0.057,0.12,0.091,0.163c-0.006,0.011-0.009,0.022-0.011,0.024l-0.049,0.128c0,0,0.221,0.118,0.275,0.148l-0.012,0.019
		v0.041v0.01c0.617-0.515,1.193-1.11,1.703-1.794C21.395,13.382,21.115,10.987,20.088,9.076z M14.011,5.774l-0.057-0.075
		c0.036-0.012,0.075-0.028,0.075-0.001C14.015,5.73,14.013,5.754,14.011,5.774z M14.171,5.971c-0.033-0.023-0.044-0.048-0.044-0.075
		l-0.046-0.031l-0.022-0.004l-0.008-0.014l0.03,0.018l0,0c0.027,0.005,0.047-0.012,0.065-0.034l0.039-0.063
		c-0.007,0.013-0.023,0.041-0.039,0.063c-0.012,0.023-0.02,0.047-0.02,0.065C14.15,5.915,14.169,5.938,14.171,5.971z M14.82,6.194
		c-0.048-0.042,0.141-0.155,0.083-0.202c-0.028-0.114-0.143-0.199-0.239-0.286c-0.062-0.029,0.104-0.101,0.071-0.118
		c-0.127-0.149-0.397-0.109-0.428-0.207c-0.033-0.076-0.078-0.136-0.116-0.205c0.036,0.042,0.07,0.087,0.122,0.118
		c0.199,0.096,0.395,0.228,0.552,0.409c0.134,0.242,0.221,0.433,0.256,0.72C15.135,6.61,14.892,6.291,14.82,6.194z M18.129,9.781
		C18.12,9.81,18.12,9.837,18.086,9.857c-0.029,0.009-0.057,0.022-0.079,0.038L18.129,9.781z M17.783,10.097l0.061-0.065l0.015-0.023
		l0.025-0.019l-0.04,0.042l-0.001,0.001c-0.018,0.024-0.002,0.032,0.02,0.027l0.039-0.007c0.01-0.005,0.017-0.005,0.021-0.005
		l-0.021,0.005c-0.015,0.003-0.026,0.006-0.039,0.007C17.838,10.068,17.812,10.081,17.783,10.097
		c-0.033,0.034-0.074,0.063-0.122,0.089C17.706,10.145,17.746,10.118,17.783,10.097z M17.16,15.949
		c-0.036-0.008-0.036-0.026-0.036-0.037c0,0,0.018-0.017,0.028-0.028c0.005,0.003,0.014,0.005,0.019,0.006
		C17.167,15.912,17.16,15.949,17.16,15.949z M17.272,16.072c0.009-0.053,0.019-0.105,0.019-0.105
		c0.028,0.006,0.041,0.02,0.041,0.043C17.332,16.01,17.304,16.042,17.272,16.072z M18.348,9.914
		c-0.156,0.195-0.309,0.378-0.491,0.546c-0.236,0.192-0.42,0.315-0.717,0.479c-0.202,0.101,0.097-0.16,0.211-0.25
		c0.046-0.044,0.173-0.019,0.219-0.068c0.121-0.067,0.202-0.176,0.309-0.278c0.039-0.049,0.083,0.018,0.1-0.005
		c0.151-0.146,0.195-0.321,0.299-0.395c0.081-0.058,0.147-0.112,0.213-0.17L18.348,9.914z M18.912,7.249
		c0.026,0.035,0.063,0.064,0.026,0.086c-0.043,0.008-0.072,0.021-0.097,0.037C18.866,7.332,18.886,7.292,18.912,7.249z
		 M18.833,7.565c-0.035,0.009-0.063,0.02-0.09,0.038c-0.011,0.039-0.028,0.079-0.062,0.11c0.003-0.052,0.027-0.086,0.062-0.11
		c0.009-0.025,0.012-0.05,0.016-0.075l-0.005-0.025l0.014-0.022l-0.009,0.048v0.001C18.767,7.562,18.796,7.567,18.833,7.565
		l0.065-0.008c0.009-0.001,0.016-0.002,0.021-0.002l-0.021,0.002C18.879,7.562,18.856,7.565,18.833,7.565z M19.506,7.409
		c-0.022,0.226-0.043,0.452-0.103,0.679c-0.125,0.25-0.214,0.442-0.41,0.691c-0.009,0.013-0.018,0.021-0.027,0.026
		c-0.059,0.139-0.142,0.268-0.264,0.37c0.052-0.05,0.065-0.031,0.027,0.04l-0.067,0.031c0.053-0.134,0.114-0.254,0.223-0.348
		c0,0,0.01-0.061,0.016-0.093c0.004-0.004,0.01-0.009,0.013-0.011c-0.034-0.073-0.003-0.301,0.017-0.395
		c0-0.063,0.247-0.023,0.244-0.094c0.078-0.101,0.072-0.238,0.094-0.375c-0.008-0.067,0.164,0.024,0.161-0.009
		c0.055-0.182-0.112-0.397-0.019-0.481c0.064-0.066,0.13-0.127,0.186-0.19C19.564,7.303,19.527,7.35,19.506,7.409z M18.65,8.203
		C18.653,8.235,18.653,8.3,18.653,8.3c-0.195,0.018-0.239,0.132-0.285,0.259l0.117,0.017c0.044-0.063,0.006-0.098-0.072-0.077
		c0.199-0.036,0.311-0.136,0.391-0.258C18.752,8.221,18.702,8.188,18.65,8.203z M18.021,3.474c0.508,0.44,1.12,1.248,1.349,1.86
		c0.14,0.14,0.21,0.001,0.063-0.652c-0.134-0.589-0.447-1.249-0.649-1.621C18.163,2.282,16.6,2.142,18.021,3.474z M17.297,10.556
		c-0.021,0.023-0.067,0.066-0.067,0.066c-0.146,0.011-0.261,0.096-0.383,0.17l0.073,0.011c0.073-0.036,0.07-0.061-0.002-0.048
		c0.175-0.021,0.316-0.091,0.454-0.174C17.351,10.565,17.342,10.543,17.297,10.556z"/>
</g>
</svg>
